<?xml version="1.0" encoding="utf-8"?>
<!-- Generator: Adobe Illustrator 22.1.0, SVG Export Plug-In . SVG Version: 6.00 Build 0)  -->
<svg version="1.1" id="Capa_1" xmlns="http://www.w3.org/2000/svg" xmlns:xlink="http://www.w3.org/1999/xlink" x="0px" y="0px"
	 viewBox="0 0 482 482" style="enable-background:new 0 0 482 482;" xml:space="preserve">
<style type="text/css">
	.st0{opacity:0.45;}
	.st1{fill:#F48C6C;}
	.st2{fill:#3DD0F2;}
</style>
<g class="st0">
	<g>
		<path d="M462,265.4c11,0,20,9,20,20c0,11-9,20-20,20c-8.4,0-15.6-5.2-18.5-12.5h-63.9v14.8h34c2,0,3.9,0.8,5.3,2.2l21.3,21.3
			c2.3-0.9,4.8-1.5,7.5-1.5c11,0,20,9,20,20c0,11-9,20-20,20c-11,0-20-9-20-20c0-2.9,0.6-5.6,1.8-8.1l-18.9-18.9h-30.9v90
			c0,14.6-8,28.2-20.7,35.3c-6.1,3.4-12.9,5.1-19.6,5.1s-13.5-1.7-19.7-5.1c-12.8-7.1-20.7-20.6-20.7-35.3v-30.7h-16.9v30.7
			c0,14.6-8,28.2-20.7,35.3c-6.1,3.4-12.9,5.1-19.6,5.1s-13.5-1.7-19.7-5.1c-12.8-7.1-20.7-20.6-20.7-35.3v-30.7h-17.9v30.7
			c0,14.6-7.9,28.2-20.7,35.3c-6.1,3.4-12.9,5.1-19.6,5.1s-13.5-1.7-19.7-5.1c-12.8-7.1-20.7-20.6-20.7-35.3v-90H71.6l-18.8,18.9
			c1.1,2.5,1.8,5.2,1.8,8.1c0,11-9,20-20,20s-20-9-20-20c0-11,9-20,20-20c2.6,0,5.1,0.5,7.4,1.5l21.3-21.3c1.4-1.4,3.3-2.2,5.3-2.2
			h34v-14.8H38.5c-3,7.3-10.1,12.5-18.5,12.5c-11,0-20-9-20-20c0-11,9-20,20-20c8.4,0,15.5,5.2,18.5,12.5h63.9v-14.8h-26
			c-2,0-3.9-0.8-5.3-2.2l-21.3-21.3c-2.3,0.9-4.8,1.4-7.5,1.4c-11,0-20-9-20-20c0-11,9-20,20-20c11,0,20,9,20,20
			c0,2.9-0.6,5.7-1.8,8.1l18.9,18.9h22.9V138.8c0-4.1,3.4-7.5,7.5-7.5h65.8c4.1,0,7.5,3.4,7.5,7.5v50.1h17.9v-50.1
			c0-4.1,3.4-7.5,7.5-7.5h65.8c4.1,0,7.5,3.4,7.5,7.5v50.1h16.9v-50.1c0-4.1,3.4-7.5,7.5-7.5h65.8c4.1,0,7.5,3.4,7.5,7.5v109.3h22.9
			l18.9-18.9c-1.1-2.5-1.8-5.2-1.8-8.1c0-11,9-20,20-20s20,9,20,20c0,11-9,20-20,20c-2.6,0-5.1-0.5-7.4-1.4L410.8,261
			c-1.4,1.4-3.3,2.2-5.3,2.2h-26v14.8h63.9C446.5,270.6,453.6,265.4,462,265.4z M467,285.4c0-2.8-2.3-5-5-5c-2.8,0-5,2.3-5,5
			c0,2.8,2.2,5,5,5C464.8,290.4,467,288.2,467,285.4z M452.5,349.6c0-2.8-2.3-5-5-5c-2.8,0-5,2.3-5,5c0,2.8,2.2,5,5,5
			C450.3,354.6,452.5,352.4,452.5,349.6z M444.5,221.1c0-2.8-2.2-5-5-5s-5,2.3-5,5c0,2.8,2.2,5,5,5S444.5,223.9,444.5,221.1z
			 M364.6,412.6V168.3h-50.8v244.4c0,9.2,5,17.7,13,22.2c7.7,4.3,17,4.3,24.7,0C359.6,430.3,364.6,421.8,364.6,412.6z M364.6,153.3
			v-6.9h-50.8v6.9H364.6z M298.8,366.9v-163h-16.9v163H298.8z M266.9,412.6V168.3h-50.8v244.4c0,9.2,5,17.7,13,22.2
			c7.7,4.3,17,4.3,24.7,0C261.9,430.3,266.9,421.8,266.9,412.6z M266.9,153.3v-6.9h-50.8v6.9H266.9z M201.1,366.9v-163h-17.9v163
			H201.1z M168.2,412.6V168.3h-50.8v244.4c0,9.2,5,17.7,13,22.2c7.7,4.3,17,4.3,24.7,0C163.2,430.3,168.2,421.8,168.2,412.6z
			 M168.2,153.3v-6.9h-50.8v6.9H168.2z M47.5,221.1c0-2.8-2.2-5-5-5c-2.8,0-5,2.3-5,5c0,2.8,2.3,5,5,5
			C45.3,226.1,47.5,223.9,47.5,221.1z M39.5,349.6c0-2.8-2.2-5-5-5s-5,2.3-5,5c0,2.8,2.2,5,5,5S39.5,352.4,39.5,349.6z M25,285.4
			c0-2.8-2.2-5-5-5s-5,2.3-5,5c0,2.8,2.2,5,5,5S25,288.2,25,285.4z"/>
		<path class="st1" d="M364.6,168.3v244.4c0,9.2-5,17.7-13,22.2c-7.7,4.3-17,4.3-24.7,0c-8-4.5-13-13-13-22.2V168.3L364.6,168.3
			L364.6,168.3z"/>
		<path d="M345.3,62.2c2.7,3.8,6.4,9.1,6.4,18.6c0,9.5-3.7,14.7-6.4,18.6c-1,1.4-1.9,2.6-2.5,3.9c-1.3,2.7-4,4.3-6.8,4.3
			c-1.1,0-2.1-0.2-3.2-0.7c-3.8-1.8-5.4-6.2-3.6-10c1.2-2.5,2.5-4.5,3.8-6.2c2.3-3.2,3.6-5.2,3.6-9.9c0-4.8-1.4-6.7-3.6-9.9
			c-2.7-3.8-6.4-9.1-6.4-18.6c0-9.5,3.7-14.7,6.4-18.5c0.3-0.5,0.7-0.9,1-1.4c2.3-3.4,7-4.4,10.4-2c3.4,2.3,4.4,7,2,10.4
			c-0.4,0.6-0.8,1.1-1.1,1.7c-2.3,3.2-3.6,5.2-3.6,9.9C341.7,57,343,59,345.3,62.2z"/>
		<path class="st1" d="M266.9,168.3v244.4c0,9.2-5,17.7-13,22.2c-7.7,4.3-17,4.3-24.7,0c-8-4.5-13-13-13-22.2V168.3L266.9,168.3
			L266.9,168.3z"/>
		<path d="M247.1,62.2c2.7,3.8,6.4,9.1,6.4,18.6c0,9.5-3.7,14.7-6.4,18.6c-1,1.4-1.9,2.6-2.5,3.9c-1.3,2.7-4,4.3-6.8,4.3
			c-1.1,0-2.1-0.2-3.2-0.7c-3.8-1.8-5.4-6.2-3.6-10c1.2-2.5,2.6-4.5,3.8-6.2c2.3-3.2,3.6-5.2,3.6-9.9c0-4.8-1.4-6.7-3.6-9.9
			c-2.7-3.8-6.4-9.1-6.4-18.6c0-9.5,3.7-14.7,6.4-18.5c0.3-0.5,0.7-0.9,1-1.4c2.3-3.4,7-4.4,10.4-2c3.4,2.3,4.4,7,2,10.4
			c-0.4,0.6-0.8,1.1-1.1,1.7c-2.3,3.2-3.6,5.2-3.6,9.9C243.5,57,244.9,59,247.1,62.2z"/>
		<path class="st1" d="M168.2,168.3v244.4c0,9.2-5,17.7-13,22.2c-7.7,4.3-17,4.3-24.7,0c-8-4.5-13-13-13-22.2V168.3L168.2,168.3
			L168.2,168.3z"/>
		<path d="M149,62.2c2.7,3.8,6.4,9.1,6.4,18.6c0,9.5-3.7,14.7-6.4,18.6c-1,1.4-1.9,2.6-2.5,3.9c-1.3,2.7-4,4.3-6.8,4.3
			c-1.1,0-2.1-0.2-3.2-0.7c-3.8-1.8-5.4-6.2-3.6-10c1.2-2.5,2.6-4.5,3.8-6.2c2.3-3.2,3.6-5.2,3.6-9.9c0-4.8-1.4-6.7-3.6-9.9
			c-2.7-3.8-6.4-9.1-6.4-18.6c0-9.5,3.7-14.7,6.4-18.5c0.3-0.5,0.7-0.9,1-1.4c2.3-3.4,7-4.4,10.4-2c3.4,2.3,4.4,7,2,10.4
			c-0.4,0.6-0.8,1.1-1.1,1.7c-2.3,3.2-3.6,5.2-3.6,9.9C145.3,57,146.7,59,149,62.2z"/>
		<path class="st2" d="M42.5,216.1c2.8,0,5,2.3,5,5c0,2.8-2.2,5-5,5c-2.8,0-5-2.2-5-5C37.5,218.4,39.7,216.1,42.5,216.1z"/>
		<path class="st2" d="M34.5,344.6c2.8,0,5,2.3,5,5c0,2.8-2.2,5-5,5s-5-2.2-5-5C29.5,346.9,31.7,344.6,34.5,344.6z"/>
		<path class="st2" d="M20,280.4c2.8,0,5,2.3,5,5c0,2.8-2.2,5-5,5s-5-2.2-5-5C15,282.6,17.2,280.4,20,280.4z"/>
	</g>
	<path class="st2" d="M462,280.4c2.8,0,5,2.3,5,5c0,2.8-2.3,5-5,5c-2.8,0-5-2.2-5-5C457,282.6,459.3,280.4,462,280.4z"/>
	<path class="st2" d="M447.5,344.6c2.8,0,5,2.3,5,5c0,2.8-2.3,5-5,5c-2.8,0-5-2.2-5-5C442.5,346.9,444.8,344.6,447.5,344.6z"/>
	<path class="st2" d="M439.5,216.1c2.8,0,5,2.3,5,5c0,2.8-2.2,5-5,5s-5-2.2-5-5C434.5,218.4,436.8,216.1,439.5,216.1z"/>
</g>
</svg>
