<?xml version="1.0" encoding="utf-8"?>
<!-- Generator: Adobe Illustrator 22.1.0, SVG Export Plug-In . SVG Version: 6.00 Build 0)  -->
<svg version="1.1" id="Layer_1" xmlns="http://www.w3.org/2000/svg" xmlns:xlink="http://www.w3.org/1999/xlink" x="0px" y="0px"
	 viewBox="0 0 1470.6 405.1" style="enable-background:new 0 0 1470.6 405.1;" xml:space="preserve">
<style type="text/css">
	.st0{fill:#FFFF00;}
</style>
<g>
	<path class="st0" d="M437.9,233.7c0-2.9,1.4-5.4,4.3-7.3c1.6-1,3.2-1.5,4.9-1.5c2.4,0,4.6,1.1,6.7,3.2c3.4,3.5,6.8,6,10.5,7.7
		c3.6,1.7,8.1,2.5,13.2,2.5c8.8-0.4,13.1-3.6,13.1-9.9c0-3.3-1.5-5.7-4.4-7.3c-3-1.7-7.6-3.4-13.8-5c-6.5-1.8-11.8-3.5-15.8-5.4
		c-4.1-1.8-7.6-4.5-10.5-8.1c-3-3.6-4.4-8.5-4.4-14.7c0-5.4,1.5-10,4.6-14c3.1-4,7.1-7.1,12.1-9.2c5-2.2,10.3-3.3,15.8-3.3
		c5.7,0,11.4,1.1,17.1,3.2c5.7,2.1,10.2,5.2,13.4,9.4c1.4,1.8,2.2,3.8,2.2,6c0,2.6-1.1,4.7-3.2,6.4c-1.6,1.2-3.4,1.9-5.4,1.9
		c-2.5,0-4.5-0.8-6-2.4c-2-2.5-4.6-4.4-7.8-5.8c-3.2-1.4-6.8-2.2-10.8-2.2c-8.5,0-12.7,3.1-12.7,9.2c0,2.5,0.8,4.4,2.4,5.9
		c1.6,1.5,3.5,2.7,5.9,3.5c2.4,0.8,5.8,1.9,10.2,3.1c6,1.7,11.1,3.5,15.1,5.2c4.1,1.8,7.4,4.5,10.3,8.2c2.8,3.7,4.2,8.6,4.2,14.6
		c0,5.5-1.6,10.3-4.9,14.3c-3.3,4.1-7.4,7.2-12.5,9.3c-5.1,2.1-10.4,3.2-15.7,3.2c-7.3,0-14.2-1.2-20.6-3.7s-11.6-6.5-15.6-11.9
		C438.4,237.4,437.9,235.7,437.9,233.7z"/>
	<path class="st0" d="M605.6,232c-4.1,7.1-9.6,12.7-16.5,16.5c-7,3.9-14.7,5.8-23.1,5.8c-8.5,0-16.2-1.9-23.2-5.8
		c-6.9-3.9-12.4-9.4-16.5-16.5c-4.1-7.1-6-15.1-6-24.1c0-8.9,2-17,6-24.1c4.1-7.1,9.5-12.7,16.5-16.6c6.9-4,14.7-5.9,23.2-5.9
		c8.4,0,16.1,1.9,23.1,5.9c7,4,12.5,9.5,16.5,16.6c4.1,7.1,6,15.1,6,24.1C611.7,216.9,609.7,224.8,605.6,232z M588.1,193.1
		c-2.3-4.3-5.4-7.6-9.2-10c-3.9-2.4-8.1-3.5-12.8-3.5s-8.9,1.2-12.8,3.5s-6.9,5.7-9.2,10c-2.3,4.3-3.5,9.2-3.5,14.7
		s1.2,10.4,3.5,14.6c2.3,4.2,5.4,7.5,9.2,9.9c3.9,2.4,8.1,3.5,12.8,3.5s8.9-1.2,12.8-3.5c3.9-2.4,6.9-5.7,9.2-9.9
		c2.3-4.2,3.5-9.1,3.5-14.6C591.6,202.3,590.4,197.5,588.1,193.1z"/>
	<path class="st0" d="M647.4,249.7c-1.9,1.9-4.4,2.9-7.3,2.9s-5.1-1-7.1-2.9c-1.9-1.9-2.8-4.4-2.8-7.3V138.7c0-2.9,1-5.3,2.9-7.3
		c1.9-1.9,4.4-2.9,7.3-2.9c2.8,0,5.1,1,7.1,2.9c1.9,1.9,2.8,4.4,2.8,7.3v103.7C650.3,245.3,649.3,247.7,647.4,249.7z"/>
	<path class="st0" d="M753.6,164c1.9,1.9,2.8,4.3,2.8,7.3v71c0,2.9-1,5.3-2.8,7.3c-1.9,1.9-4.3,2.9-7.3,2.9c-2.9,0-5.3-1-7.2-2.8
		c-1.9-1.9-2.8-4.3-2.9-7.3c-2.8,3.3-6.5,6-11.3,8.3c-4.8,2.3-9.7,3.5-15,3.5c-7.7,0-14.7-1.9-21-5.9c-6.3-4-11.2-9.5-14.9-16.5
		c-3.6-7.1-5.5-15-5.5-24c0-8.9,1.8-17,5.4-24.1c3.5-7.1,8.5-12.7,14.7-16.6c6.2-4,13.1-5.9,20.5-5.9c5.4,0,10.4,1,15.1,2.9
		c4.7,1.9,8.7,4.4,11.9,7.4v-0.2c0-2.9,1-5.3,2.8-7.3c1.9-1.9,4.3-2.9,7.3-2.9C749.3,161.2,751.7,162.2,753.6,164z M730.3,227.9
		c4.6-5.3,6.9-12,6.9-20.1s-2.3-14.8-6.9-20.2c-4.6-5.4-10.5-8.1-17.8-8.1c-7.2,0-13,2.7-17.6,8.1c-4.6,5.4-6.9,12.1-6.9,20.2
		s2.3,14.8,6.8,20.1c4.5,5.3,10.4,8,17.7,8C719.8,235.9,725.7,233.2,730.3,227.9z"/>
	<path class="st0" d="M833.3,164c2.3,1.9,3.5,4.2,3.5,6.7c0,3.5-0.9,6.1-2.7,7.8c-1.8,1.8-3.9,2.6-6.4,2.6c-1.7,0-3.5-0.4-5.7-1.2
		c-0.4-0.1-1.1-0.4-2.3-0.7c-1.2-0.4-2.5-0.5-3.8-0.5c-2.9,0-5.7,0.9-8.4,2.7c-2.7,1.8-4.9,4.5-6.6,8.1c-1.8,3.6-2.6,8-2.6,13v39.7
		c0,2.9-1,5.3-2.8,7.3c-1.9,1.9-4.3,2.9-7.3,2.9c-2.9,0-5.3-1-7.3-2.9c-1.9-1.9-2.8-4.4-2.8-7.3V173c0-2.9,1-5.3,2.8-7.3
		c1.9-1.9,4.3-2.9,7.3-2.9c2.9,0,5.3,1,7.3,2.9c1.9,1.9,2.8,4.4,2.8,7.3v2.2c2.6-4.6,6.3-8.1,11.1-10.5c4.8-2.4,10-3.6,15.4-3.6
		C828.3,161.2,831,162.2,833.3,164z"/>
	<path class="st0" d="M851.7,150.1c-1.6-1.2-2.4-3.5-2.4-6.5v-3.2c0-3.1,0.8-5.3,2.5-6.5c1.7-1.2,4.3-1.9,8.1-1.9
		c3.9,0,6.6,0.6,8.2,1.9c1.6,1.2,2.4,3.5,2.4,6.5v3.2c0,3.3-0.8,5.5-2.4,6.6c-1.6,1.2-4.4,1.8-8.3,1.8
		C856,152,853.3,151.4,851.7,150.1z M867.1,249.7c-1.9,1.9-4.3,2.9-7.3,2.9c-2.9,0-5.3-1-7.3-2.9c-1.9-1.9-2.8-4.4-2.8-7.3v-69.3
		c0-2.9,1-5.3,2.8-7.3c1.9-1.9,4.3-2.9,7.3-2.9c2.9,0,5.3,1,7.3,2.9c1.9,1.9,2.8,4.4,2.8,7.3v69.3
		C870.1,245.3,869.1,247.7,867.1,249.7z"/>
	<path class="st0" d="M883.9,233.7c0-2.9,1.4-5.4,4.3-7.3c1.6-1,3.2-1.5,4.9-1.5c2.4,0,4.6,1.1,6.7,3.2c3.4,3.5,6.8,6,10.5,7.7
		c3.6,1.7,8.1,2.5,13.2,2.5c8.8-0.4,13.1-3.6,13.1-9.9c0-3.3-1.5-5.7-4.4-7.3c-3-1.7-7.6-3.4-13.8-5c-6.5-1.8-11.8-3.5-15.8-5.4
		c-4.1-1.8-7.6-4.5-10.5-8.1c-3-3.6-4.4-8.5-4.4-14.7c0-5.4,1.5-10,4.6-14c3.1-4,7.1-7.1,12.1-9.2c5-2.2,10.3-3.3,15.8-3.3
		c5.7,0,11.4,1.1,17.1,3.2s10.2,5.2,13.4,9.4c1.4,1.8,2.2,3.8,2.2,6c0,2.6-1.1,4.7-3.2,6.4c-1.6,1.2-3.4,1.9-5.4,1.9
		c-2.5,0-4.5-0.8-6-2.4c-2-2.5-4.6-4.4-7.8-5.8c-3.2-1.4-6.8-2.2-10.8-2.2c-8.5,0-12.7,3.1-12.7,9.2c0,2.5,0.8,4.4,2.4,5.9
		c1.6,1.5,3.5,2.7,5.9,3.5c2.4,0.8,5.8,1.9,10.2,3.1c6,1.7,11.1,3.5,15.1,5.2s7.4,4.5,10.3,8.2c2.8,3.7,4.2,8.6,4.2,14.6
		c0,5.5-1.6,10.3-4.9,14.3c-3.3,4.1-7.4,7.2-12.5,9.3c-5.1,2.1-10.4,3.2-15.7,3.2c-7.3,0-14.2-1.2-20.6-3.7
		c-6.4-2.5-11.6-6.5-15.6-11.9C884.5,237.4,883.9,235.7,883.9,233.7z"/>
	<path class="st0" d="M1047.1,130c1,1,1.4,2.1,1.4,3.6v114c0,1.4-0.4,2.7-1.4,3.6c-1,1-2.1,1.4-3.6,1.4c-1.4,0-2.7-0.4-3.6-1.4
		c-1-1-1.4-2.1-1.4-3.6v-11.8c-2.8,5.1-7,9.5-12.5,13.1c-5.6,3.5-11.7,5.4-18.4,5.4c-7.3,0-14.1-1.9-20.1-5.8
		c-6-3.9-10.7-9.2-14.2-16c-3.5-6.8-5.2-14.5-5.2-23c0-8.4,1.8-16,5.2-22.8c3.5-6.8,8.2-12.1,14.2-16c6-3.9,12.7-5.8,19.9-5.8
		c6.6,0,12.7,1.7,18.3,5c5.6,3.3,9.8,7.6,12.7,12.8v-49.2c0-1.4,0.4-2.7,1.4-3.6c1-1,2.1-1.4,3.6-1.4S1046.1,129,1047.1,130z
		 M1024.3,240.4c4.6-3,8.3-7.3,10.9-12.7c2.7-5.4,4-11.5,4-18.2c0-6.6-1.3-12.6-4-18c-2.7-5.4-6.3-9.6-10.9-12.7
		c-4.6-3.1-9.9-4.6-15.7-4.6c-5.8,0-11.1,1.5-15.7,4.6s-8.3,7.3-10.9,12.7c-2.7,5.4-4,11.3-4,18c0,6.7,1.3,12.7,4,18.1
		c2.7,5.4,6.3,9.6,10.9,12.7c4.6,3.1,9.9,4.6,15.7,4.6C1014.4,244.9,1019.7,243.4,1024.3,240.4z"/>
	<path class="st0" d="M1145.8,208.3c-1,1-2.2,1.4-3.5,1.4h-63.4c0,6.7,1.3,12.7,4.1,18c2.7,5.3,6.6,9.5,11.8,12.6s11.1,4.6,18,4.6
		c5.4,0,10.2-1.2,14.4-3.4c4.2-2.2,7.7-5.1,10.3-8.6c1.2-1,2.4-1.5,3.5-1.5c1.2,0,2.1,0.4,3,1.3c0.9,0.9,1.3,1.9,1.3,3
		c0,1.2-0.5,2.4-1.7,3.5c-3.5,4.3-8.1,8-13.5,10.7c-5.4,2.8-11.1,4.2-17.2,4.2c-8.6,0-16.2-1.9-22.8-5.6
		c-6.6-3.7-11.8-8.8-15.4-15.5c-3.7-6.6-5.6-14.3-5.6-23.1c0-9.2,1.9-17.2,5.5-24.1c3.6-6.9,8.5-12.1,14.5-15.7
		c6-3.6,12.5-5.5,19.3-5.5c6.7,0,13,1.6,18.8,4.7c5.8,3.1,10.6,7.7,14.3,13.7c3.7,6,5.6,13.2,5.7,21.5
		C1147.3,206.1,1146.8,207.3,1145.8,208.3z M1090.3,181.4c-5.6,4.5-9.1,10.9-10.6,19.3h57.2v-1.3c-0.5-5-2.2-9.4-5-13.2
		c-2.8-3.7-6.3-6.6-10.5-8.6c-4.2-1.9-8.5-2.9-13-2.9C1101.9,174.7,1095.9,176.9,1090.3,181.4z"/>
	<path class="st0" d="M1161.9,235.3c0-1.4,0.7-2.6,2.2-3.4c0.7-0.7,1.6-1,2.7-1c1.3,0,2.6,0.5,3.7,1.7c6.6,8.8,15.4,13.1,26.4,13.1
		c5.4,0,10-1.2,14-3.8c4-2.5,5.9-6.2,5.9-11c0-4.7-1.9-8.2-5.6-10.5c-3.7-2.4-8.8-4.3-15.4-6c-9.3-2.4-16.5-5.4-21.9-9.1
		c-5.2-3.7-7.9-9.3-7.9-16.5c0-4.6,1.3-8.7,3.9-12.3s6.1-6.5,10.5-8.5s9.4-3,15-3c4.8,0,9.6,0.9,14.5,2.7c4.9,1.9,9,4.8,12.5,8.8
		c1,0.8,1.5,1.9,1.5,3.4c0,1.3-0.5,2.5-1.7,3.5c-0.8,0.7-1.8,1-3,1c-1.2,0-2.1-0.4-3-1.3c-2.7-3-5.8-5.3-9.6-6.9
		c-3.7-1.6-7.7-2.4-11.9-2.4c-5.2,0-9.7,1.2-13.5,3.7c-3.7,2.5-5.7,6.2-5.7,11.1c0.3,4.5,2.3,7.9,6.1,10.3c3.8,2.4,9.6,4.5,17,6.4
		c5.8,1.4,10.6,3.1,14.4,4.9c3.8,1.8,6.9,4.3,9.3,7.5c2.4,3.3,3.6,7.5,3.6,12.9c0,7.3-2.9,13.1-8.8,17.3c-5.8,4.3-13,6.5-21.7,6.5
		c-13.6,0-24.5-5.1-32.6-15.3C1162.4,237.6,1161.9,236.4,1161.9,235.3z"/>
	<path class="st0" d="M1246.3,152.6c-1.2-1.1-1.9-2.6-1.9-4.6v-1.7c0-2,0.6-3.5,1.9-4.6c1.3-1.1,3-1.6,5.3-1.6c4.5,0,6.7,2,6.7,6.2
		v1.7c0,2-0.6,3.5-1.8,4.6c-1.2,1.1-2.9,1.6-5.1,1.6C1249.2,154.2,1247.5,153.7,1246.3,152.6z M1255.1,251.3c-1,1-2.1,1.4-3.6,1.4
		c-1.4,0-2.7-0.4-3.6-1.4c-1-1-1.4-2.1-1.4-3.6v-77.1c0-1.4,0.4-2.7,1.4-3.6c1-1,2.1-1.4,3.6-1.4c1.4,0,2.7,0.4,3.6,1.4
		c1,1,1.4,2.1,1.4,3.6v77.1C1256.5,249.1,1256,250.3,1255.1,251.3z"/>
	<path class="st0" d="M1358.7,168.4c1,1,1.4,2.2,1.4,3.8v72.6c0,8.8-1.9,16.2-5.5,22.4s-8.6,11-15,14.2c-6.3,3.3-13.5,4.9-21.8,4.9
		c-3.9,0-8.1-0.5-12.3-1.5c-4.3-1-8-2.3-11.1-3.9c-3.1-1.6-4.9-3.2-5.3-4.9c-0.8-0.8-1.2-1.7-1.2-2.7c0-1.2,0.5-2,1.5-2.7
		c0.4-0.4,1-0.5,1.7-0.5s1.9,0.4,3.9,1.2l3.5,1.5c6.9,2.7,13.4,4.1,19.5,4.1c10,0,17.8-2.8,23.4-8.5c5.7-5.7,8.5-13.3,8.5-22.9V235
		c-2.8,6-7.3,10.8-13.3,14.2c-6,3.5-12.4,5.1-18.9,5.1c-7.7,0-14.7-1.9-20.9-5.8c-6.2-3.9-11.1-9.2-14.7-16
		c-3.5-6.8-5.4-14.5-5.4-23c0-8.4,1.8-16,5.4-22.8c3.5-6.8,8.5-12.1,14.7-16c6.2-3.9,13.1-5.8,20.7-5.8c7.1,0,13.5,1.8,19.4,5.3
		c5.8,3.5,10.2,7.8,13,12.7v-10.7c0-1.4,0.4-2.7,1.4-3.7c1-1,2.1-1.5,3.6-1.5C1356.6,167,1357.8,167.4,1358.7,168.4z M1335.3,240.5
		c4.9-2.9,8.7-7.2,11.4-12.6s4.1-11.6,4.1-18.4c0-6.8-1.3-12.9-4.1-18.3s-6.5-9.6-11.4-12.5c-4.9-2.9-10.4-4.4-16.5-4.4
		c-6,0-11.5,1.5-16.4,4.6c-4.9,3.1-8.7,7.3-11.4,12.7c-2.7,5.4-4.1,11.3-4.1,18c0,6.7,1.3,12.7,4.1,18.1c2.7,5.4,6.5,9.6,11.4,12.7
		c4.9,3.1,10.4,4.6,16.4,4.6C1324.9,244.9,1330.4,243.5,1335.3,240.5z"/>
	<path class="st0" d="M1450,174c4.9,6.1,7.3,14.2,7.3,24.2v49.3c0,1.4-0.5,2.7-1.5,3.6c-1,1-2.2,1.4-3.5,1.4c-1.4,0-2.7-0.4-3.6-1.4
		c-1-1-1.4-2.1-1.4-3.6v-48.8c0-7.3-1.9-13.2-5.5-17.7c-3.6-4.5-9.3-6.8-16.9-6.8c-4.8,0-9.4,1.2-13.7,3.4
		c-4.3,2.2-7.8,5.2-10.5,8.9c-2.7,3.7-4.1,7.8-4.1,12.1v48.8c0,1.4-0.4,2.7-1.4,3.6c-1,1-2.1,1.4-3.6,1.4c-1.4,0-2.7-0.4-3.6-1.4
		c-1-1-1.4-2.1-1.4-3.6v-75.1c0-1.4,0.4-2.7,1.4-3.6c1-1,2.1-1.4,3.6-1.4c1.4,0,2.7,0.4,3.6,1.4c1,1,1.4,2.1,1.4,3.6v9.4
		c3-4.8,7.3-8.8,13-12c5.7-3.2,11.4-4.8,17.3-4.8C1437.5,164.9,1445.2,167.9,1450,174z"/>
</g>
<g>
	<g>
		<g>
			<circle class="st0" cx="198.4" cy="21.1" r="5.4"/>
			<circle class="st0" cx="198.4" cy="38.6" r="5.4"/>
			<circle class="st0" cx="198.4" cy="56" r="5.4"/>
			<circle class="st0" cx="221.8" cy="63.8" r="5.4"/>
			
				<ellipse transform="matrix(0.1602 -0.9871 0.9871 0.1602 82.5425 224.5471)" class="st0" cx="173.2" cy="63.8" rx="5.4" ry="5.4"/>
		</g>
		<g>
			<circle class="st0" cx="85.3" cy="39.7" r="5.4"/>
			<circle class="st0" cx="95.6" cy="53.9" r="5.4"/>
			<circle class="st0" cx="105.8" cy="68" r="5.4"/>
			<circle class="st0" cx="116.1" cy="82.2" r="5.4"/>
			<circle class="st0" cx="139.5" cy="74.8" r="5.4"/>
			<circle class="st0" cx="100.2" cy="103.3" r="5.4"/>
		</g>
		<g>
			<circle class="st0" cx="31.6" cy="140.9" r="5.4"/>
			<circle class="st0" cx="48.2" cy="146.3" r="5.4"/>
			<circle class="st0" cx="64.8" cy="151.7" r="5.4"/>
			<circle class="st0" cx="79.4" cy="131.9" r="5.4"/>
			<circle class="st0" cx="64.4" cy="178.1" r="5.4"/>
		</g>
		<g>
			
				<ellipse transform="matrix(0.9999 -1.020250e-02 1.020250e-02 0.9999 -2.594 0.1598)" class="st0" cx="14.4" cy="254.3" rx="5.4" ry="5.4"/>
			<circle class="st0" cx="30.9" cy="249" r="5.4"/>
			
				<ellipse transform="matrix(3.327796e-02 -0.9994 0.9994 3.327796e-02 -197.3959 282.9573)" class="st0" cx="47.6" cy="243.5" rx="5.4" ry="5.4"/>
			<circle class="st0" cx="64.2" cy="238.1" r="5.4"/>
			<circle class="st0" cx="64.4" cy="213.6" r="5.4"/>
			<circle class="st0" cx="79.4" cy="259.8" r="5.4"/>
		</g>
		<g>
			<circle class="st0" cx="94" cy="336.6" r="5.4"/>
			<circle class="st0" cx="104.2" cy="322.6" r="5.4"/>
			<circle class="st0" cx="114.5" cy="308.4" r="5.4"/>
			<circle class="st0" cx="100.2" cy="288.4" r="5.4"/>
			<circle class="st0" cx="139.5" cy="316.9" r="5.4"/>
		</g>
		<g>
			<circle class="st0" cx="196.5" cy="388.1" r="5.4"/>
			<circle class="st0" cx="196.5" cy="370.6" r="5.4"/>
			<circle class="st0" cx="196.5" cy="353.1" r="5.4"/>
			<circle class="st0" cx="196.5" cy="335.7" r="5.4"/>
			<circle class="st0" cx="173.2" cy="327.9" r="5.4"/>
			<circle class="st0" cx="221.8" cy="327.9" r="5.4"/>
		</g>
		<g>
			<circle class="st0" cx="299.4" cy="337.8" r="5.4"/>
			<circle class="st0" cx="289.1" cy="323.7" r="5.4"/>
			<circle class="st0" cx="278.9" cy="309.5" r="5.4"/>
			<circle class="st0" cx="255.5" cy="316.9" r="5.4"/>
			<circle class="st0" cx="294.7" cy="288.4" r="5.4"/>
		</g>
		<g>
			<circle class="st0" cx="380" cy="256.2" r="5.4"/>
			<circle class="st0" cx="363.4" cy="250.8" r="5.4"/>
			<circle class="st0" cx="346.8" cy="245.4" r="5.4"/>
			<circle class="st0" cx="330.1" cy="240" r="5.4"/>
			<circle class="st0" cx="315.6" cy="259.8" r="5.4"/>
			<circle class="st0" cx="330.6" cy="213.6" r="5.4"/>
		</g>
		<g>
			<circle class="st0" cx="364" cy="142.7" r="5.4"/>
			<circle class="st0" cx="347.4" cy="148.2" r="5.4"/>
			<circle class="st0" cx="330.8" cy="153.5" r="5.4"/>
			<circle class="st0" cx="330.6" cy="178.1" r="5.4"/>
			<circle class="st0" cx="315.6" cy="131.9" r="5.4"/>
		</g>
		<g>
			<circle class="st0" cx="311.3" cy="40.9" r="5.4"/>
			<circle class="st0" cx="301" cy="55" r="5.4"/>
			<circle class="st0" cx="290.7" cy="69.1" r="5.4"/>
			<circle class="st0" cx="280.4" cy="83.3" r="5.4"/>
			<circle class="st0" cx="294.7" cy="103.3" r="5.4"/>
			<circle class="st0" cx="255.5" cy="74.8" r="5.4"/>
		</g>
	</g>
	<path class="st0" d="M202,307.9c-0.6-5,2.9-9.6,7.9-10.1l0,0c5-0.7,9.6,2.9,10.1,7.9l0,0c0.6,5-2.9,9.5-7.9,10.1l0,0
		c-0.4,0.1-0.8,0.1-1.1,0.1l0,0C206.4,315.9,202.6,312.5,202,307.9z M179.2,315.4c-5-0.7-8.4-5.4-7.7-10.3l0,0
		c0.7-5,5.4-8.4,10.3-7.7l0,0c5,0.7,8.4,5.4,7.7,10.3l0,0c-0.7,4.5-4.6,7.7-9,7.7l0,0C180.1,315.5,179.7,315.4,179.2,315.4z
		 M232,302.5c-2-4.6,0.3-10,4.9-11.9l0,0c4.6-1.9,10,0.3,11.9,4.9l0,0c1.9,4.6-0.3,10-4.9,11.9l0,0l0,0l0,0
		c-1.2,0.5-2.4,0.7-3.5,0.7l0,0C236.9,308.1,233.5,306,232,302.5z M147.6,306.1c-4.6-2.1-6.6-7.5-4.5-12l0,0c2.1-4.6,7.5-6.6,12-4.5
		l0,0c4.6,2.1,6.6,7.5,4.5,12l0,0c-1.5,3.3-4.8,5.4-8.3,5.4l0,0C150.1,306.8,148.8,306.6,147.6,306.1z M259.5,289.2
		c-3.1-3.9-2.4-9.6,1.5-12.8l0,0c3.9-3.1,9.6-2.4,12.8,1.5l0,0c3.1,3.9,2.4,9.6-1.5,12.8l0,0l0,0l0,0c-1.7,1.3-3.7,2-5.6,2l0,0
		C264,292.6,261.3,291.5,259.5,289.2z M119.7,288.6L119.7,288.6L119.7,288.6c-3.9-3.2-4.4-9-1.2-12.8l0,0c3.2-3.9,9-4.4,12.8-1.2
		l0,0c3.9,3.2,4.4,9,1.2,12.8l0,0c-1.8,2.2-4.4,3.3-7,3.3l0,0C123.5,290.7,121.4,290,119.7,288.6z M282.3,268.9
		c-4.1-2.9-5-8.6-2-12.7l0,0l0.1-0.1l0,0c2.9-4.1,8.6-5,12.7-2l0,0c4.1,2.9,5,8.6,2,12.6l0,0c-0.1,0.1-0.1,0.1-0.1,0.1l0,0
		c-1.8,2.4-4.6,3.7-7.3,3.7l0,0C285.9,270.6,284,270.1,282.3,268.9z M97.6,264.2c-2.8-4.1-1.8-9.8,2.4-12.6l0,0
		c4.1-2.8,9.8-1.8,12.6,2.4l0,0c2.8,4.1,1.8,9.8-2.4,12.6l0,0c-1.6,1-3.3,1.6-5.1,1.6l0,0C102.2,268.2,99.4,266.8,97.6,264.2z
		 M299,243.2c-4.7-1.8-7.1-7-5.4-11.7l0,0c1.8-4.7,7-7.1,11.7-5.4l0,0c4.7,1.8,7.1,7,5.4,11.7l0,0c-1.4,3.7-4.8,6-8.5,6l0,0
		C301.1,243.7,300,243.5,299,243.2z M82.9,234.8L82.9,234.8L82.9,234.8c-1.6-4.8,0.9-9.9,5.7-11.5l0,0c4.8-1.6,9.9,0.9,11.5,5.7l0,0
		c1.6,4.7-0.9,9.9-5.7,11.5l0,0c-1,0.3-2,0.5-2.9,0.5l0,0C87.6,241,84.1,238.6,82.9,234.8z M308,214c-5-0.4-8.7-4.8-8.3-9.8l0,0
		c0.4-5,4.8-8.7,9.8-8.3l0,0c5,0.4,8.7,4.8,8.3,9.8l0,0c-0.4,4.8-4.4,8.4-9,8.4l0,0C308.5,214,308.2,214,308,214z M76.6,202.5
		L76.6,202.5L76.6,202.5c-0.3-5,3.5-9.3,8.6-9.6l0,0c5-0.3,9.3,3.5,9.6,8.6l0,0c0.3,5-3.5,9.3-8.6,9.6l0,0c-0.2,0-0.3,0-0.5,0l0,0
		C80.8,211.1,76.8,207.3,76.6,202.5z M298,176.3L298,176.3c-1-4.9,2.3-9.7,7.2-10.7l0,0c4.9-1,9.7,2.3,10.7,7.2l0,0
		c1,4.9-2.3,9.7-7.2,10.7l0,0c-0.6,0.1-1.2,0.1-1.8,0.1l0,0C302.7,183.6,298.9,180.6,298,176.3z M86.1,180.5c-4.9-1.1-8-6-6.9-10.9
		l0,0c1.1-4.9,6-8,10.9-6.9l0,0c4.9,1.1,8,6,6.9,10.9l0,0c-0.9,4.3-4.7,7.1-8.9,7.1l0,0C87.4,180.7,86.8,180.7,86.1,180.5z
		 M289.1,149.7c-2.2-4.5-0.5-10,4.1-12.2l0,0c4.5-2.2,10-0.5,12.2,4.1l0,0c2.2,4.5,0.5,10-4.1,12.2l0,0c-1.3,0.7-2.7,1-4.1,1l0,0
		C293.9,154.8,290.6,153,289.1,149.7z M94.4,151.1c-4.5-2.4-6.1-7.9-3.7-12.3l0,0c2.4-4.5,7.9-6.1,12.3-3.7l0,0
		c4.4,2.4,6.1,7.9,3.7,12.3l0,0c-1.6,3.1-4.8,4.8-8,4.8l0,0C97.3,152.2,95.8,151.8,94.4,151.1z M273.2,126.7L273.2,126.7
		c-3.4-3.7-3.1-9.4,0.6-12.8l0,0c3.7-3.4,9.4-3.1,12.8,0.6l0,0c3.4,3.7,3.1,9.4-0.6,12.8l0,0c-1.8,1.6-3.9,2.4-6.1,2.4l0,0
		C277.5,129.7,275.1,128.7,273.2,126.7z M110.3,125.1c-3.7-3.5-3.7-9.2-0.3-12.8l0,0c3.5-3.6,9.2-3.7,12.8-0.3l0,0
		c3.6,3.5,3.7,9.2,0.3,12.8l0,0c-1.8,1.9-4.2,2.8-6.5,2.8l0,0C114.3,127.5,112.1,126.7,110.3,125.1z M251.7,108.8
		c-4.3-2.7-5.6-8.3-2.9-12.5l0,0c2.7-4.3,8.3-5.6,12.5-2.9l0,0c4.3,2.7,5.6,8.3,2.9,12.5l0,0c-1.7,2.8-4.6,4.3-7.7,4.3l0,0
		C255,110.2,253.3,109.7,251.7,108.8z M132.6,104.2c-2.6-4.3-1.1-9.9,3.2-12.4l0,0l0,0l0,0c4.3-2.6,9.9-1.1,12.4,3.2l0,0
		c2.6,4.3,1.1,9.9-3.2,12.4l0,0c-1.4,0.9-3,1.2-4.6,1.2l0,0C137.3,108.6,134.3,107,132.6,104.2z M226.3,97.3
		c-4.8-1.4-7.6-6.5-6.2-11.3l0,0c1.4-4.8,6.5-7.6,11.3-6.2l0,0c4.8,1.4,7.6,6.5,6.2,11.3l0,0c-1.2,4-4.8,6.5-8.7,6.5l0,0
		C228,97.7,227.1,97.6,226.3,97.3z M159.7,90.2c-1.3-4.8,1.6-9.8,6.5-11.1l0,0c4.8-1.3,9.8,1.6,11.1,6.5l0,0
		c1.3,4.8-1.6,9.8-6.5,11.1l0,0c-0.8,0.2-1.6,0.3-2.4,0.3l0,0C164.5,96.9,160.8,94.2,159.7,90.2z M198.6,93.2c-5-0.1-9-4.2-9-9.2
		l0,0c0.1-5,4.2-9,9.2-9l0,0l0,0l0,0c5,0.1,9,4.2,9,9.2l0,0c-0.1,5-4.1,9-9.1,9l0,0C198.7,93.2,198.6,93.2,198.6,93.2z"/>
	<path class="st0" d="M186.9,293.4c-5-0.5-8.6-5-8.1-10l0,0c0.5-5,5-8.6,10-8.1l0,0c5,0.5,8.6,5,8.1,10l0,0c-0.5,4.7-4.5,8.2-9,8.2
		l0,0C187.6,293.5,187.2,293.5,186.9,293.4z M209.9,284.4c-1.2-4.8,1.8-9.8,6.6-11l0,0c4.8-1.2,9.8,1.8,11,6.6l0,0
		c1.2,4.8-1.8,9.8-6.6,11l0,0l0,0l0,0c-0.7,0.2-1.4,0.3-2.2,0.3l0,0C214.6,291.3,211,288.6,209.9,284.4z M154.2,284.1L154.2,284.1
		L154.2,284.1c-4.5-2.2-6.4-7.7-4.2-12.2l0,0c2.2-4.5,7.7-6.4,12.2-4.2l0,0c4.5,2.2,6.4,7.7,4.2,12.2l0,0c-1.6,3.2-4.8,5.1-8.2,5.1
		l0,0C156.8,285,155.5,284.7,154.2,284.1z M239.4,274.8c-2.8-4.2-1.7-9.8,2.4-12.6l0,0c4.1-2.8,9.8-1.7,12.6,2.4l0,0
		c2.8,4.2,1.7,9.8-2.4,12.6l0,0c-1.6,1-3.3,1.6-5,1.6l0,0C244.1,278.7,241.2,277.4,239.4,274.8z M126.6,264L126.6,264L126.6,264
		c-3.5-3.6-3.4-9.4,0.2-12.8l0,0c3.6-3.5,9.4-3.4,12.8,0.2l0,0c3.5,3.6,3.4,9.4-0.2,12.8l0,0c-1.8,1.7-4.1,2.6-6.4,2.6l0,0
		C130.8,266.8,128.4,265.8,126.6,264z M263.9,255.5c-4.1-2.9-5-8.6-2-12.6l0,0c0.1-0.1,0.1-0.1,0.1-0.1l0,0c2.9-4.1,8.6-5,12.7-2
		l0,0c4.1,2.9,5,8.6,2,12.7l0,0l-0.1,0.1l0,0l0,0l0,0c-1.8,2.4-4.6,3.7-7.3,3.7l0,0C267.3,257.3,265.5,256.7,263.9,255.5z
		 M107.6,235.8L107.6,235.8L107.6,235.8c-2-4.6,0-10,4.6-12l0,0c4.6-2,10,0,12,4.6l0,0c2,4.6,0,10-4.6,12l0,0
		c-1.2,0.5-2.4,0.8-3.7,0.8l0,0C112.4,241.2,109.1,239.2,107.6,235.8z M280.3,229c-4.8-1.4-7.6-6.4-6.2-11.3l0,0
		c1.4-4.8,6.4-7.6,11.3-6.2l0,0c4.8,1.4,7.7,6.4,6.2,11.3l0,0c-1.1,4-4.8,6.6-8.7,6.6l0,0C282,229.4,281.2,229.3,280.3,229z
		 M99.3,202.7c-0.3-5,3.4-9.4,8.4-9.7l0,0c5-0.3,9.4,3.4,9.7,8.4l0,0c0.3,5-3.4,9.4-8.4,9.7l0,0c-0.2,0-0.5,0-0.7,0l0,0
		C103.6,211.2,99.6,207.5,99.3,202.7z M276.9,190.2L276.9,190.2c-0.3-5,3.4-9.4,8.4-9.7l0,0c5-0.4,9.4,3.4,9.7,8.4l0,0l0,0l0,0
		c0.3,5-3.4,9.4-8.4,9.7l0,0c-0.2,0-0.5,0-0.7,0l0,0C281.2,198.7,277.2,195,276.9,190.2z M109.1,180.1c-4.8-1.4-7.6-6.4-6.2-11.3
		l0,0c1.4-4.8,6.4-7.6,11.3-6.2l0,0c4.8,1.4,7.6,6.4,6.2,11.3l0,0c-1.1,4-4.8,6.6-8.7,6.6l0,0C110.8,180.5,109.9,180.3,109.1,180.1z
		 M270.2,163.2c-2-4.6,0-10,4.6-12l0,0c4.6-2,10,0,12,4.6l0,0c2,4.6,0,10-4.6,12l0,0c-1.2,0.5-2.4,0.8-3.7,0.8l0,0
		C275,168.7,271.7,166.6,270.2,163.2z M119.8,150.9c-4.1-2.9-5-8.6-2-12.7l0,0c2.9-4.1,8.6-5,12.7-2l0,0c4.1,2.9,5,8.6,2,12.7l0,0
		c-1.8,2.4-4.5,3.7-7.3,3.7l0,0C123.3,152.6,121.4,152.1,119.8,150.9z M254.6,140.2c-3.5-3.6-3.4-9.4,0.2-12.8l0,0
		c3.6-3.5,9.4-3.4,12.8,0.2l0,0c3.5,3.6,3.4,9.4-0.2,12.8l0,0c-1.8,1.7-4.1,2.6-6.4,2.6l0,0C258.8,143.1,256.5,142.1,254.6,140.2z
		 M139.8,127.2c-2.8-4.2-1.7-9.8,2.4-12.6l0,0c4.2-2.8,9.8-1.7,12.6,2.4l0,0c2.8,4.2,1.7,9.8-2.4,12.6l0,0c-1.6,1-3.3,1.6-5.1,1.6
		l0,0C144.4,131.1,141.5,129.8,139.8,127.2z M232.2,123.9L232.2,123.9c-4.5-2.2-6.4-7.7-4.2-12.2l0,0c2.2-4.5,7.7-6.4,12.2-4.2l0,0
		c4.5,2.2,6.4,7.7,4.2,12.2l0,0c-1.6,3.2-4.8,5.1-8.2,5.1l0,0C234.8,124.9,233.5,124.6,232.2,123.9z M166.8,111.7
		c-1.2-4.8,1.8-9.8,6.6-11l0,0l0,0l0,0c4.8-1.2,9.8,1.8,11,6.6l0,0c1.2,4.8-1.8,9.8-6.6,11l0,0c-0.7,0.2-1.5,0.3-2.2,0.3l0,0
		C171.5,118.6,167.8,115.8,166.8,111.7z M205.5,116.3c-5-0.5-8.6-5-8.1-10l0,0c0.5-5,5-8.6,10-8.1l0,0c5,0.5,8.6,5,8.1,10l0,0
		c-0.5,4.7-4.5,8.2-9,8.2l0,0C206.1,116.4,205.8,116.3,205.5,116.3z"/>
</g>
</svg>
