<?xml version="1.0" encoding="utf-8"?>
<!-- Generator: Adobe Illustrator 22.1.0, SVG Export Plug-In . SVG Version: 6.00 Build 0)  -->
<svg version="1.1" id="Layer_1" xmlns="http://www.w3.org/2000/svg" xmlns:xlink="http://www.w3.org/1999/xlink" x="0px" y="0px"
	 viewBox="0 0 1634.9 436.5" style="enable-background:new 0 0 1634.9 436.5;" xml:space="preserve">
<style type="text/css">
	.st0{fill:#222222;}
</style>
<g>
	<path class="st0" d="M470.8,238c0-3.3,1.6-6.1,4.9-8.3c1.8-1.1,3.6-1.7,5.5-1.7c2.7,0,5.2,1.2,7.6,3.6c3.8,3.9,7.7,6.8,11.9,8.7
		c4.1,1.9,9.1,2.8,14.9,2.8c9.9-0.4,14.8-4.1,14.8-11.2c0-3.7-1.7-6.4-5-8.3c-3.4-1.9-8.6-3.8-15.6-5.7c-7.3-2-13.3-4-17.9-6.1
		c-4.6-2-8.6-5.1-11.9-9.2c-3.4-4.1-5-9.6-5-16.6c0-6.1,1.7-11.3,5.2-15.8s8-8,13.7-10.4c5.6-2.5,11.6-3.7,17.9-3.7
		c6.4,0,12.9,1.2,19.3,3.6c6.4,2.4,11.5,5.9,15.2,10.6c1.6,2,2.5,4.3,2.5,6.8c0,2.9-1.2,5.3-3.6,7.2c-1.8,1.4-3.8,2.1-6.1,2.1
		c-2.8,0-5.1-0.9-6.8-2.7c-2.3-2.8-5.2-5-8.8-6.6s-7.7-2.5-12.2-2.5c-9.6,0-14.4,3.5-14.4,10.4c0,2.8,0.9,5,2.7,6.7s4,3,6.7,4
		c2.7,0.9,6.5,2.1,11.5,3.5c6.8,1.9,12.5,3.9,17.1,5.9s8.4,5.1,11.6,9.3c3.2,4.2,4.7,9.7,4.7,16.5c0,6.2-1.8,11.6-5.5,16.2
		s-8.4,8.1-14.1,10.5c-5.8,2.4-11.7,3.6-17.7,3.6c-8.3,0-16.1-1.4-23.3-4.2c-7.2-2.8-13.1-7.3-17.6-13.5
		C471.4,242.2,470.8,240.3,470.8,238z"/>
	<path class="st0" d="M660.4,236.1c-4.6,8-10.8,14.3-18.7,18.7c-7.9,4.4-16.6,6.6-26.1,6.6c-9.6,0-18.3-2.2-26.2-6.6
		c-7.8-4.4-14-10.6-18.6-18.7c-4.6-8-6.8-17.1-6.8-27.2s2.3-19.2,6.8-27.2c4.6-8,10.7-14.3,18.6-18.8c7.8-4.5,16.6-6.7,26.2-6.7
		c9.5,0,18.2,2.2,26.1,6.7c7.9,4.5,14.1,10.7,18.7,18.8c4.6,8,6.8,17.1,6.8,27.2C667.3,219,665,228,660.4,236.1z M640.6,192.2
		c-2.6-4.9-6.1-8.6-10.4-11.3c-4.4-2.7-9.2-4-14.5-4s-10.1,1.3-14.5,4s-7.8,6.4-10.4,11.3c-2.6,4.9-3.9,10.4-3.9,16.6
		s1.3,11.7,3.9,16.5c2.6,4.8,6.1,8.5,10.4,11.2c4.4,2.7,9.2,4,14.5,4s10.1-1.3,14.5-4s7.8-6.4,10.4-11.2c2.6-4.8,3.9-10.3,3.9-16.5
		C644.5,202.6,643.2,197.1,640.6,192.2z"/>
	<path class="st0" d="M707.6,256.1c-2.2,2.2-5,3.3-8.2,3.3s-5.8-1.1-8-3.3c-2.2-2.2-3.2-5-3.2-8.2V130.7c0-3.3,1.1-6,3.3-8.2
		s5-3.3,8.2-3.3s5.8,1.1,8,3.3c2.1,2.2,3.2,5,3.2,8.2v117.2C710.9,251.2,709.8,253.9,707.6,256.1z"/>
	<path class="st0" d="M827.7,159.3c2.1,2.2,3.2,4.9,3.2,8.3v80.2c0,3.3-1.1,6-3.2,8.2c-2.2,2.2-4.9,3.3-8.2,3.3s-6-1.1-8.1-3.2
		c-2.1-2.1-3.2-4.9-3.3-8.2c-3.2,3.7-7.4,6.8-12.8,9.4c-5.4,2.6-11,3.9-17,3.9c-8.7,0-16.6-2.2-23.7-6.7
		c-7.1-4.5-12.7-10.7-16.8-18.7s-6.2-17-6.2-27.1s2-19.2,6.1-27.2c4-8,9.6-14.3,16.6-18.8s14.8-6.7,23.2-6.7
		c6.1,0,11.8,1.1,17.1,3.3s9.8,5,13.5,8.4v-0.2c0-3.3,1.1-6,3.2-8.2c2.1-2.2,4.9-3.3,8.2-3.3C822.8,156.1,825.5,157.2,827.7,159.3z
		 M801.3,231.5c5.2-6,7.8-13.6,7.8-22.7s-2.6-16.7-7.8-22.8c-5.2-6.1-11.9-9.1-20.1-9.1c-8.1,0-14.7,3-19.9,9.1s-7.8,13.7-7.8,22.8
		s2.6,16.7,7.7,22.7c5.1,6,11.8,9,20,9C789.4,240.5,796.1,237.5,801.3,231.5z"/>
	<path class="st0" d="M917.8,159.3c2.6,2.2,3.9,4.7,3.9,7.6c0,3.9-1,6.9-3,8.8c-2,2-4.4,2.9-7.2,2.9c-1.9,0-4-0.4-6.4-1.3
		c-0.4-0.1-1.2-0.4-2.6-0.8c-1.3-0.4-2.8-0.6-4.3-0.6c-3.3,0-6.4,1-9.5,3c-3,2-5.5,5.1-7.5,9.2s-2.9,9-2.9,14.7v44.9
		c0,3.3-1.1,6-3.2,8.2c-2.2,2.2-4.9,3.3-8.2,3.3c-3.3,0-6-1.1-8.2-3.3c-2.2-2.2-3.2-5-3.2-8.2v-78.3c0-3.3,1.1-6,3.2-8.2
		s4.9-3.3,8.2-3.3c3.3,0,6,1.1,8.2,3.3c2.1,2.2,3.2,5,3.2,8.2v2.5c2.9-5.2,7.1-9.1,12.5-11.9c5.4-2.7,11.3-4.1,17.4-4.1
		C912.1,156.1,915.2,157.2,917.8,159.3z"/>
	<path class="st0" d="M938.6,143.6c-1.8-1.4-2.7-3.9-2.7-7.4v-3.6c0-3.5,0.9-6,2.8-7.4s4.9-2.1,9.1-2.1c4.4,0,7.5,0.7,9.3,2.1
		c1.8,1.4,2.7,3.9,2.7,7.4v3.6c0,3.7-0.9,6.2-2.7,7.5c-1.8,1.3-5,2-9.4,2C943.4,145.7,940.4,145,938.6,143.6z M956,256.1
		c-2.2,2.2-4.9,3.3-8.2,3.3c-3.3,0-6-1.1-8.2-3.3c-2.2-2.2-3.2-5-3.2-8.2v-78.3c0-3.3,1.1-6,3.2-8.2s4.9-3.3,8.2-3.3
		c3.3,0,6,1.1,8.2,3.3c2.1,2.2,3.2,5,3.2,8.2v78.3C959.3,251.2,958.2,253.9,956,256.1z"/>
	<path class="st0" d="M975,238c0-3.3,1.6-6.1,4.9-8.3c1.8-1.1,3.6-1.7,5.5-1.7c2.7,0,5.2,1.2,7.6,3.6c3.8,3.9,7.7,6.8,11.9,8.7
		c4.1,1.9,9.1,2.8,14.9,2.8c9.9-0.4,14.8-4.1,14.8-11.2c0-3.7-1.7-6.4-5-8.3c-3.4-1.9-8.6-3.8-15.6-5.7c-7.3-2-13.3-4-17.9-6.1
		c-4.6-2-8.6-5.1-11.9-9.2c-3.4-4.1-5-9.6-5-16.6c0-6.1,1.7-11.3,5.2-15.8s8-8,13.7-10.4c5.6-2.5,11.6-3.7,17.9-3.7
		c6.4,0,12.9,1.2,19.3,3.6c6.4,2.4,11.5,5.9,15.2,10.6c1.6,2,2.5,4.3,2.5,6.8c0,2.9-1.2,5.3-3.6,7.2c-1.8,1.4-3.8,2.1-6.1,2.1
		c-2.8,0-5.1-0.9-6.8-2.7c-2.3-2.8-5.2-5-8.8-6.6c-3.6-1.6-7.7-2.5-12.2-2.5c-9.6,0-14.4,3.5-14.4,10.4c0,2.8,0.9,5,2.7,6.7
		c1.8,1.7,4,3,6.7,4c2.7,0.9,6.5,2.1,11.5,3.5c6.8,1.9,12.5,3.9,17.1,5.9s8.4,5.1,11.6,9.3c3.2,4.2,4.7,9.7,4.7,16.5
		c0,6.2-1.8,11.6-5.5,16.2s-8.4,8.1-14.1,10.5c-5.8,2.4-11.7,3.6-17.7,3.6c-8.3,0-16.1-1.4-23.3-4.2c-7.2-2.8-13.1-7.3-17.6-13.5
		C975.6,242.2,975,240.3,975,238z"/>
	<path class="st0" d="M1159.4,120.8c1.1,1.1,1.6,2.4,1.6,4.1v128.9c0,1.6-0.5,3-1.6,4.1s-2.4,1.6-4.1,1.6c-1.6,0-3-0.5-4.1-1.6
		s-1.6-2.4-1.6-4.1v-13.3c-3.2,5.8-7.9,10.7-14.1,14.8c-6.3,4-13.2,6.1-20.8,6.1c-8.3,0-15.9-2.2-22.7-6.5
		c-6.8-4.4-12.1-10.4-16-18.1s-5.9-16.4-5.9-26c0-9.5,2-18.1,5.9-25.8c3.9-7.7,9.3-13.7,16-18.1c6.8-4.4,14.3-6.5,22.5-6.5
		c7.5,0,14.3,1.9,20.7,5.6c6.3,3.7,11.1,8.6,14.4,14.5v-55.6c0-1.6,0.5-3,1.6-4.1s2.4-1.6,4.1-1.6S1158.3,119.7,1159.4,120.8z
		 M1133.6,245.6c5.2-3.4,9.4-8.2,12.3-14.3c3-6.1,4.5-13,4.5-20.6c0-7.5-1.5-14.2-4.5-20.3c-3-6.1-7.1-10.8-12.3-14.3
		c-5.2-3.5-11.2-5.2-17.7-5.2c-6.6,0-12.5,1.7-17.7,5.2s-9.4,8.2-12.3,14.3c-3,6.1-4.5,12.8-4.5,20.3c0,7.6,1.5,14.4,4.5,20.5
		s7.1,10.8,12.3,14.3c5.2,3.5,11.2,5.2,17.7,5.2C1122.5,250.7,1128.4,249,1133.6,245.6z"/>
	<path class="st0" d="M1271,209.3c-1.1,1.1-2.5,1.6-4,1.6h-71.7c0,7.6,1.5,14.4,4.6,20.4s7.5,10.7,13.3,14.2s12.5,5.2,20.4,5.2
		c6.1,0,11.5-1.3,16.3-3.8s8.7-5.8,11.6-9.7c1.4-1.1,2.7-1.7,4-1.7s2.4,0.5,3.4,1.5s1.5,2.2,1.5,3.4c0,1.4-0.6,2.7-1.9,4
		c-4,4.9-9.1,9-15.3,12.1c-6.1,3.2-12.6,4.7-19.4,4.7c-9.7,0-18.3-2.1-25.8-6.3c-7.5-4.2-13.3-10-17.4-17.5
		c-4.2-7.5-6.3-16.2-6.3-26.1c0-10.4,2.1-19.4,6.2-27.2c4.1-7.8,9.6-13.7,16.4-17.8c6.8-4.1,14.1-6.2,21.8-6.2
		c7.6,0,14.7,1.8,21.3,5.3c6.6,3.5,12,8.7,16.2,15.5c4.2,6.8,6.3,14.9,6.4,24.3C1272.7,206.9,1272.1,208.2,1271,209.3z
		 M1208.3,178.9c-6.3,5.1-10.3,12.3-12,21.8h64.7v-1.5c-0.6-5.7-2.5-10.6-5.7-14.9c-3.2-4.2-7.1-7.5-11.9-9.7
		c-4.7-2.2-9.6-3.3-14.7-3.3C1221.4,171.3,1214.6,173.8,1208.3,178.9z"/>
	<path class="st0" d="M1289.2,239.9c0-1.6,0.8-2.9,2.5-3.8c0.8-0.8,1.8-1.1,3-1.1c1.5,0,2.9,0.6,4.2,1.9
		c7.5,9.9,17.4,14.8,29.8,14.8c6.1,0,11.3-1.4,15.8-4.3c4.5-2.8,6.7-7,6.7-12.4c0-5.3-2.1-9.3-6.3-11.9c-4.2-2.7-10-4.9-17.4-6.8
		c-10.5-2.7-18.7-6.1-24.7-10.3c-5.9-4.2-8.9-10.5-8.9-18.7c0-5.2,1.5-9.8,4.4-13.9s6.9-7.3,11.9-9.6s10.6-3.4,17-3.4
		c5.4,0,10.9,1,16.4,3.1s10.2,5.4,14.1,10c1.1,0.9,1.7,2.2,1.7,3.8c0,1.5-0.6,2.8-1.9,4c-0.9,0.8-2,1.1-3.4,1.1
		c-1.3,0-2.4-0.5-3.4-1.5c-3-3.4-6.6-6-10.8-7.8c-4.2-1.8-8.7-2.7-13.5-2.7c-5.9,0-11,1.4-15.3,4.2c-4.2,2.8-6.4,7-6.4,12.5
		c0.3,5.1,2.6,8.9,6.9,11.6s10.8,5.1,19.2,7.2c6.6,1.6,12,3.5,16.3,5.5s7.8,4.9,10.5,8.5c2.7,3.7,4.1,8.5,4.1,14.6
		c0,8.2-3.3,14.8-9.9,19.6c-6.6,4.9-14.7,7.3-24.5,7.3c-15.4,0-27.7-5.8-36.8-17.3C1289.7,242.5,1289.2,241.1,1289.2,239.9z"/>
	<path class="st0" d="M1384.6,146.4c-1.4-1.2-2.1-2.9-2.1-5.2v-1.9c0-2.3,0.7-4,2.2-5.2s3.4-1.8,6-1.8c5.1,0,7.6,2.3,7.6,7v1.9
		c0,2.3-0.7,4-2,5.2s-3.3,1.8-5.8,1.8C1387.9,148.2,1386,147.6,1384.6,146.4z M1394.5,257.9c-1.1,1.1-2.4,1.6-4.1,1.6
		c-1.6,0-3-0.5-4.1-1.6s-1.6-2.4-1.6-4.1v-87.2c0-1.6,0.5-3,1.6-4.1s2.4-1.6,4.1-1.6c1.6,0,3,0.5,4.1,1.6s1.6,2.4,1.6,4.1v87.2
		C1396.1,255.4,1395.6,256.8,1394.5,257.9z"/>
	<path class="st0" d="M1511.7,164.2c1.1,1.1,1.6,2.5,1.6,4.3v82.1c0,9.9-2.1,18.3-6.2,25.3s-9.7,12.4-16.9,16
		c-7.1,3.7-15.3,5.5-24.6,5.5c-4.4,0-9.1-0.6-13.9-1.7c-4.9-1.1-9-2.6-12.5-4.4s-5.5-3.6-6-5.5c-0.9-0.9-1.3-1.9-1.3-3
		c0-1.3,0.6-2.3,1.7-3c0.5-0.4,1.1-0.6,1.9-0.6s2.2,0.4,4.4,1.3l4,1.7c7.8,3,15.2,4.6,22,4.6c11.3,0,20.1-3.2,26.5-9.6
		s9.6-15,9.6-25.9v-11.8c-3.2,6.8-8.2,12.2-15,16c-6.8,3.9-14,5.8-21.4,5.8c-8.7,0-16.6-2.2-23.6-6.5c-7-4.4-12.5-10.4-16.6-18.1
		c-4-7.7-6.1-16.4-6.1-26c0-9.5,2-18.1,6.1-25.8c4-7.7,9.6-13.7,16.6-18.1s14.8-6.5,23.4-6.5c8,0,15.3,2,21.9,6s11.5,8.8,14.7,14.3
		v-12.1c0-1.6,0.5-3,1.6-4.2c1.1-1.1,2.4-1.7,4.1-1.7C1509.3,162.6,1510.6,163.1,1511.7,164.2z M1485.2,245.7
		c5.5-3.3,9.8-8.1,12.9-14.2s4.6-13.1,4.6-20.8c0-7.7-1.5-14.6-4.6-20.7s-7.4-10.8-12.9-14.1c-5.5-3.3-11.7-5-18.7-5
		c-6.8,0-13,1.7-18.5,5.2s-9.8,8.2-12.9,14.3c-3.1,6.1-4.6,12.8-4.6,20.3c0,7.6,1.5,14.4,4.6,20.5s7.4,10.8,12.9,14.3
		s11.7,5.2,18.5,5.2C1473.4,250.7,1479.7,249.1,1485.2,245.7z"/>
	<path class="st0" d="M1614.9,170.6c5.5,6.9,8.2,16,8.2,27.4v55.7c0,1.6-0.6,3-1.7,4.1s-2.5,1.6-4,1.6c-1.6,0-3-0.5-4.1-1.6
		s-1.6-2.4-1.6-4.1v-55.2c0-8.2-2.1-14.9-6.2-20s-10.5-7.7-19.1-7.7c-5.4,0-10.6,1.3-15.5,3.8s-8.8,5.9-11.9,10.1
		c-3,4.2-4.6,8.8-4.6,13.7v55.2c0,1.6-0.5,3-1.6,4.1s-2.4,1.6-4.1,1.6c-1.6,0-3-0.5-4.1-1.6s-1.6-2.4-1.6-4.1v-84.9
		c0-1.6,0.5-3,1.6-4.1s2.4-1.6,4.1-1.6c1.6,0,3,0.5,4.1,1.6s1.6,2.4,1.6,4.1v10.6c3.4-5.4,8.3-10,14.7-13.6
		c6.4-3.6,12.9-5.4,19.6-5.4C1600.7,160.3,1609.4,163.7,1614.9,170.6z"/>
</g>
<g>
	<g>
		<g>
			<circle class="st0" cx="219.8" cy="13.6" r="6"/>
			<circle class="st0" cx="219.8" cy="33.1" r="6"/>
			<circle class="st0" cx="219.8" cy="52.5" r="6"/>
			<circle class="st0" cx="245.7" cy="61.1" r="6"/>
			<ellipse transform="matrix(0.1602 -0.9871 0.9871 0.1602 100.7809 240.6001)" class="st0" cx="191.8" cy="61.1" rx="6" ry="6"/>
		</g>
		<g>
			<circle class="st0" cx="94" cy="34.4" r="6"/>
			<circle class="st0" cx="105.5" cy="50.1" r="6"/>
			<circle class="st0" cx="116.8" cy="65.8" r="6"/>
			<circle class="st0" cx="128.2" cy="81.5" r="6"/>
			<circle class="st0" cx="154.3" cy="73.3" r="6"/>
			<circle class="st0" cx="110.6" cy="105" r="6"/>
		</g>
		<g>
			<circle class="st0" cx="34.4" cy="146.8" r="6"/>
			<circle class="st0" cx="52.8" cy="152.9" r="6"/>
			<circle class="st0" cx="71.3" cy="158.8" r="6"/>
			<circle class="st0" cx="87.5" cy="136.8" r="6"/>
			<circle class="st0" cx="70.8" cy="188.1" r="6"/>
		</g>
		<g>
			
				<ellipse transform="matrix(0.9999 -1.020249e-02 1.020249e-02 0.9999 -2.7831 0.1695)" class="st0" cx="15.2" cy="272.9" rx="6" ry="6"/>
			<circle class="st0" cx="33.6" cy="266.9" r="6"/>
			
				<ellipse transform="matrix(3.327795e-02 -0.9994 0.9994 3.327795e-02 -210.3299 304.2672)" class="st0" cx="52.1" cy="260.9" rx="6" ry="6"/>
			<circle class="st0" cx="70.6" cy="254.9" r="6"/>
			<circle class="st0" cx="70.8" cy="227.6" r="6"/>
			<circle class="st0" cx="87.5" cy="278.9" r="6"/>
		</g>
		<g>
			<circle class="st0" cx="103.7" cy="364.4" r="6"/>
			<circle class="st0" cx="115.1" cy="348.7" r="6"/>
			<circle class="st0" cx="126.5" cy="333" r="6"/>
			<circle class="st0" cx="110.6" cy="310.8" r="6"/>
			<circle class="st0" cx="154.3" cy="342.4" r="6"/>
		</g>
		<g>
			<circle class="st0" cx="217.6" cy="421.6" r="6"/>
			<circle class="st0" cx="217.6" cy="402.1" r="6"/>
			<circle class="st0" cx="217.6" cy="382.7" r="6"/>
			<circle class="st0" cx="217.6" cy="363.3" r="6"/>
			<circle class="st0" cx="191.8" cy="354.7" r="6"/>
			<circle class="st0" cx="245.7" cy="354.7" r="6"/>
		</g>
		<g>
			<circle class="st0" cx="332" cy="365.7" r="6"/>
			<circle class="st0" cx="320.6" cy="349.9" r="6"/>
			<circle class="st0" cx="309.2" cy="334.2" r="6"/>
			<circle class="st0" cx="283.2" cy="342.4" r="6"/>
			<circle class="st0" cx="326.8" cy="310.8" r="6"/>
		</g>
		<g>
			<circle class="st0" cx="421.6" cy="274.9" r="6"/>
			<circle class="st0" cx="403.1" cy="268.9" r="6"/>
			<circle class="st0" cx="384.7" cy="262.9" r="6"/>
			<circle class="st0" cx="366.2" cy="256.9" r="6"/>
			<circle class="st0" cx="350" cy="278.9" r="6"/>
			<circle class="st0" cx="366.7" cy="227.6" r="6"/>
		</g>
		<g>
			<circle class="st0" cx="403.8" cy="148.8" r="6"/>
			<circle class="st0" cx="385.3" cy="154.9" r="6"/>
			<circle class="st0" cx="366.9" cy="160.9" r="6"/>
			<circle class="st0" cx="366.7" cy="188.1" r="6"/>
			<circle class="st0" cx="350" cy="136.8" r="6"/>
		</g>
		<g>
			<circle class="st0" cx="345.2" cy="35.7" r="6"/>
			<circle class="st0" cx="333.8" cy="51.3" r="6"/>
			<circle class="st0" cx="322.4" cy="67" r="6"/>
			<circle class="st0" cx="310.9" cy="82.8" r="6"/>
			<circle class="st0" cx="326.8" cy="105" r="6"/>
			<circle class="st0" cx="283.2" cy="73.3" r="6"/>
		</g>
	</g>
	<path class="st0" d="M223.7,332.4c-0.7-5.5,3.3-10.6,8.8-11.3l0,0c5.5-0.7,10.6,3.3,11.3,8.8l0,0c0.7,5.5-3.3,10.6-8.8,11.3l0,0
		c-0.4,0.1-0.9,0.1-1.2,0.1l0,0C228.7,341.3,224.4,337.5,223.7,332.4z M198.4,340.7c-5.5-0.8-9.3-6-8.5-11.5l0,0
		c0.8-5.5,6-9.3,11.5-8.5l0,0c5.5,0.8,9.3,6,8.5,11.5l0,0c-0.7,5-5.1,8.6-10,8.6l0,0C199.4,340.8,198.9,340.8,198.4,340.7z
		 M257.1,326.4c-2.2-5.2,0.3-11.1,5.5-13.2l0,0c5.2-2.1,11.1,0.3,13.2,5.5l0,0c2.1,5.2-0.3,11.1-5.5,13.2l0,0l0,0l0,0
		c-1.3,0.5-2.6,0.8-3.9,0.8l0,0C262.5,332.6,258.7,330.3,257.1,326.4z M163.3,330.4c-5.1-2.3-7.4-8.3-5-13.4l0,0
		c2.3-5.1,8.3-7.4,13.4-5l0,0c5.1,2.3,7.4,8.3,5,13.4l0,0c-1.7,3.7-5.4,6-9.2,6l0,0C166.1,331.2,164.6,331,163.3,330.4z
		 M287.7,311.6c-3.4-4.4-2.7-10.7,1.7-14.2l0,0c4.4-3.5,10.7-2.7,14.2,1.7l0,0c3.5,4.4,2.7,10.7-1.7,14.2l0,0l0,0l0,0
		c-1.9,1.5-4.1,2.2-6.3,2.2l0,0C292.7,315.4,289.7,314.1,287.7,311.6z M132.3,310.9L132.3,310.9L132.3,310.9
		c-4.3-3.6-4.9-10-1.3-14.3l0,0c3.6-4.3,10-4.9,14.3-1.3l0,0c4.3,3.6,4.9,10,1.3,14.3l0,0c-2,2.4-4.9,3.6-7.8,3.6l0,0
		C136.5,313.3,134.2,312.5,132.3,310.9z M313,289.1c-4.5-3.3-5.5-9.6-2.3-14.1l0,0l0.1-0.1l0,0c3.3-4.5,9.6-5.5,14.1-2.3l0,0
		c4.5,3.3,5.5,9.5,2.3,14l0,0c-0.1,0.1-0.1,0.1-0.1,0.1l0,0c-2,2.7-5.1,4.1-8.2,4.1l0,0C317,291,314.9,290.4,313,289.1z
		 M107.7,283.9c-3.1-4.6-2-10.9,2.6-14l0,0c4.6-3.1,10.9-2,14,2.6l0,0c3.1,4.6,2,10.9-2.6,14l0,0c-1.7,1.2-3.7,1.7-5.7,1.7l0,0
		C112.8,288.3,109.7,286.8,107.7,283.9z M331.5,260.5c-5.2-2-7.9-7.8-6-13l0,0c2-5.2,7.8-7.9,13-6l0,0c5.2,2,7.9,7.8,6,13l0,0
		c-1.5,4.1-5.4,6.6-9.5,6.6l0,0C333.9,261.1,332.7,260.9,331.5,260.5z M91.3,251.2L91.3,251.2L91.3,251.2c-1.8-5.3,1-11,6.3-12.8
		l0,0c5.3-1.8,11,1,12.8,6.3l0,0c1.8,5.2-1,11-6.3,12.8l0,0c-1.1,0.4-2.2,0.5-3.3,0.5l0,0C96.7,258,92.7,255.4,91.3,251.2z
		 M341.6,228c-5.6-0.4-9.7-5.3-9.2-10.9l0,0c0.4-5.6,5.3-9.7,10.9-9.2l0,0c5.6,0.4,9.7,5.3,9.2,10.9l0,0c-0.4,5.3-4.9,9.3-10,9.3
		l0,0C342.1,228,341.8,228,341.6,228z M84.4,215.2L84.4,215.2L84.4,215.2c-0.3-5.6,3.9-10.3,9.5-10.6l0,0c5.6-0.3,10.3,3.9,10.6,9.5
		l0,0c0.3,5.6-3.9,10.3-9.5,10.6l0,0c-0.2,0-0.4,0-0.6,0l0,0C89.1,224.8,84.7,220.6,84.4,215.2z M330.5,186.1L330.5,186.1
		c-1.1-5.5,2.5-10.8,8-11.9l0,0c5.5-1.1,10.8,2.5,11.9,8l0,0c1.1,5.5-2.5,10.8-8,11.9l0,0c-0.7,0.1-1.3,0.1-2,0.1l0,0
		C335.7,194.3,331.5,190.9,330.5,186.1z M95,190.8c-5.5-1.2-8.9-6.6-7.7-12.1l0,0c1.2-5.5,6.6-8.9,12.1-7.7l0,0
		c5.5,1.2,8.9,6.6,7.7,12.1l0,0c-1,4.7-5.2,7.9-9.9,7.9l0,0C96.4,191.1,95.7,191,95,190.8z M320.5,156.6c-2.5-5-0.5-11.1,4.5-13.5
		l0,0c5-2.5,11.1-0.5,13.5,4.5l0,0c2.5,4.9,0.5,11.1-4.5,13.5l0,0c-1.5,0.7-3,1.1-4.5,1.1l0,0C325.8,162.2,322.3,160.2,320.5,156.6z
		 M104.2,158.2c-4.9-2.6-6.8-8.8-4.1-13.7l0,0c2.6-4.9,8.7-6.8,13.7-4.1l0,0c4.9,2.6,6.8,8.8,4.1,13.7l0,0c-1.8,3.4-5.3,5.3-8.9,5.3
		l0,0C107.4,159.4,105.7,159,104.2,158.2z M302.9,131L302.9,131c-3.8-4.1-3.5-10.5,0.7-14.3l0,0c4.1-3.8,10.5-3.4,14.3,0.7l0,0
		c3.8,4.1,3.5,10.5-0.7,14.3l0,0c-2,1.7-4.4,2.6-6.8,2.6l0,0C307.7,134.4,305,133.3,302.9,131z M121.8,129.2
		c-4.1-3.9-4.1-10.3-0.3-14.3l0,0c3.9-4,10.3-4.1,14.3-0.3l0,0c4,3.9,4.1,10.3,0.3,14.3l0,0c-2,2.1-4.7,3.1-7.3,3.1l0,0
		C126.3,132,123.8,131,121.8,129.2z M279.1,111.1c-4.7-3-6.2-9.2-3.2-13.9l0,0c3-4.7,9.2-6.2,13.9-3.2l0,0c4.7,3,6.2,9.2,3.2,13.9
		l0,0c-1.9,3.1-5.2,4.7-8.6,4.7l0,0C282.6,112.7,280.7,112.2,279.1,111.1z M146.7,106c-2.8-4.8-1.2-11,3.6-13.8l0,0l0,0l0,0
		c4.8-2.8,11-1.2,13.8,3.6l0,0c2.8,4.8,1.2,11-3.6,13.8l0,0c-1.6,0.9-3.3,1.4-5.1,1.4l0,0C151.9,110.9,148.5,109.2,146.7,106z
		 M250.7,98.3c-5.4-1.6-8.4-7.2-6.8-12.5l0,0c1.6-5.4,7.2-8.4,12.5-6.8l0,0c5.4,1.6,8.4,7.2,6.8,12.5l0,0c-1.3,4.4-5.3,7.3-9.7,7.3
		l0,0C252.6,98.8,251.7,98.6,250.7,98.3z M176.8,90.4c-1.5-5.4,1.7-10.9,7.2-12.4l0,0c5.4-1.5,10.9,1.7,12.4,7.2l0,0
		c1.5,5.4-1.7,10.9-7.2,12.4l0,0c-0.9,0.2-1.7,0.4-2.6,0.4l0,0C182.1,97.9,178,94.9,176.8,90.4z M220,93.8c-5.6-0.1-10-4.7-10-10.3
		l0,0c0.1-5.6,4.7-10,10.3-10l0,0l0,0l0,0c5.6,0.1,10,4.7,10,10.3l0,0c-0.1,5.5-4.6,10-10.1,10l0,0C220.1,93.8,220,93.8,220,93.8z"
		/>
	<path class="st0" d="M207,316.3c-5.5-0.6-9.6-5.5-9-11.1l0,0c0.6-5.5,5.5-9.6,11.1-9l0,0c5.5,0.6,9.6,5.5,9,11.1l0,0
		c-0.5,5.2-4.9,9.1-10,9.1l0,0C207.7,316.4,207.4,316.4,207,316.3z M232.5,306.3c-1.3-5.4,2-10.9,7.4-12.2l0,0
		c5.4-1.4,10.9,2,12.2,7.4l0,0c1.3,5.4-2,10.9-7.4,12.2l0,0l0,0l0,0c-0.8,0.2-1.6,0.3-2.5,0.3l0,0
		C237.8,314,233.7,310.9,232.5,306.3z M170.6,305.9L170.6,305.9L170.6,305.9c-5-2.5-7.1-8.5-4.7-13.5l0,0c2.5-5,8.5-7.1,13.5-4.7
		l0,0c5,2.5,7.1,8.5,4.7,13.5l0,0c-1.7,3.6-5.4,5.7-9.1,5.7l0,0C173.5,306.9,172.1,306.6,170.6,305.9z M265.4,295.6
		c-3.1-4.7-1.9-10.9,2.7-14l0,0c4.6-3.1,10.9-1.9,14,2.7l0,0c3.1,4.7,1.9,10.9-2.7,14l0,0c-1.7,1.2-3.7,1.7-5.6,1.7l0,0
		C270.5,300,267.3,298.5,265.4,295.6z M140,283.6L140,283.6L140,283.6c-3.9-4-3.8-10.4,0.2-14.3l0,0c4-3.9,10.4-3.8,14.3,0.2l0,0
		c3.9,4,3.8,10.4-0.2,14.3l0,0c-2,1.9-4.5,2.8-7.1,2.8l0,0C144.6,286.8,142,285.7,140,283.6z M292.5,274.2c-4.5-3.3-5.5-9.5-2.3-14
		l0,0c0.1-0.1,0.1-0.1,0.1-0.1l0,0c3.3-4.5,9.6-5.5,14.1-2.3l0,0c4.5,3.3,5.5,9.6,2.3,14.1l0,0l-0.1,0.1l0,0l0,0l0,0
		c-2,2.7-5.1,4.1-8.2,4.1l0,0C296.4,276.1,294.3,275.5,292.5,274.2z M118.8,252.3L118.8,252.3L118.8,252.3c-2.3-5.1,0-11.1,5.1-13.3
		l0,0c5.1-2.3,11.1,0,13.3,5.2l0,0c2.3,5.1,0,11.1-5.1,13.3l0,0c-1.3,0.6-2.7,0.9-4.1,0.9l0,0C124.2,258.2,120.5,256.1,118.8,252.3z
		 M310.8,244.8c-5.4-1.5-8.4-7.1-6.9-12.5l0,0c1.5-5.4,7.1-8.4,12.5-6.9l0,0c5.4,1.5,8.5,7.1,6.9,12.5l0,0c-1.2,4.4-5.3,7.4-9.7,7.4
		l0,0C312.7,245.1,311.7,245.1,310.8,244.8z M109.6,215.5c-0.4-5.6,3.8-10.4,9.4-10.8l0,0c5.6-0.4,10.4,3.8,10.8,9.4l0,0
		c0.4,5.6-3.8,10.4-9.4,10.8l0,0c-0.2,0-0.5,0-0.7,0l0,0C114.4,224.9,110,220.8,109.6,215.5z M307,201.6L307,201.6
		c-0.4-5.6,3.8-10.4,9.4-10.8l0,0c5.6-0.4,10.4,3.8,10.8,9.4l0,0l0,0l0,0c0.4,5.6-3.8,10.4-9.4,10.8l0,0c-0.2,0-0.5,0-0.7,0l0,0
		C311.8,211,307.4,206.9,307,201.6z M120.5,190.3c-5.4-1.5-8.4-7.1-6.9-12.5l0,0c1.5-5.4,7.1-8.4,12.5-6.9l0,0
		c5.4,1.5,8.4,7.1,6.9,12.5l0,0c-1.2,4.4-5.3,7.4-9.7,7.4l0,0C122.4,190.8,121.4,190.6,120.5,190.3z M299.6,171.6
		c-2.3-5.1,0-11.1,5.1-13.3l0,0c5.1-2.3,11.1,0,13.3,5.1l0,0c2.3,5.1,0,11.1-5.1,13.3l0,0c-1.3,0.6-2.7,0.9-4.1,0.9l0,0
		C304.9,177.7,301.2,175.4,299.6,171.6z M132.4,157.9c-4.5-3.3-5.5-9.6-2.3-14.1l0,0c3.3-4.5,9.6-5.5,14.1-2.3l0,0
		c4.5,3.3,5.5,9.6,2.3,14.1l0,0c-2,2.7-5,4.1-8.2,4.1l0,0C136.3,159.8,134.2,159.3,132.4,157.9z M282.3,146.1
		c-3.9-4-3.8-10.4,0.2-14.3l0,0c4-3.9,10.4-3.8,14.3,0.2l0,0c3.9,4,3.8,10.4-0.2,14.3l0,0c-2,1.9-4.5,2.8-7.1,2.8l0,0
		C286.9,149.2,284.3,148.1,282.3,146.1z M154.7,131.5c-3.1-4.7-1.9-10.9,2.7-14l0,0c4.7-3.1,10.9-1.9,14,2.7l0,0
		c3.1,4.7,1.9,10.9-2.7,14l0,0c-1.7,1.2-3.7,1.7-5.7,1.7l0,0C159.8,136,156.6,134.4,154.7,131.5z M257.3,128L257.3,128
		c-5-2.5-7.1-8.5-4.7-13.5l0,0c2.5-5,8.5-7.1,13.5-4.7l0,0c5,2.5,7.1,8.5,4.7,13.5l0,0c-1.7,3.6-5.4,5.7-9.1,5.7l0,0
		C260.2,129,258.7,128.7,257.3,128z M184.6,114.3c-1.4-5.4,2-10.9,7.4-12.2l0,0l0,0l0,0c5.4-1.4,10.9,2,12.2,7.4l0,0
		c1.4,5.4-2,10.9-7.4,12.2l0,0c-0.8,0.2-1.7,0.3-2.5,0.3l0,0C189.9,122,185.7,118.9,184.6,114.3z M227.7,119.5
		c-5.5-0.6-9.6-5.5-9-11.1l0,0c0.6-5.5,5.5-9.6,11.1-9l0,0c5.5,0.6,9.6,5.5,9,11.1l0,0c-0.5,5.2-4.9,9.1-10,9.1l0,0
		C228.3,119.6,228,119.5,227.7,119.5z"/>
</g>
</svg>
