<?xml version="1.0" encoding="utf-8"?>
<!-- Generator: Adobe Illustrator 22.1.0, SVG Export Plug-In . SVG Version: 6.00 Build 0)  -->
<svg version="1.1" id="Layer_1" xmlns="http://www.w3.org/2000/svg" xmlns:xlink="http://www.w3.org/1999/xlink" x="0px" y="0px"
	 viewBox="0 0 200 200" style="enable-background:new 0 0 200 200;" xml:space="preserve">
<style type="text/css">
	.st0{fill:#F1754E;}
</style>
<g>
	<g>
		<path class="st0" d="M143.4,10.9H56.6c-7.1,0-12.9,5.8-12.9,12.8v122.1V178c0,5.3,4.3,9.7,9.6,9.7h93.2c5.3,0,9.6-4.3,9.6-9.7
			v-32.1V23.7C156.2,16.6,150.5,10.9,143.4,10.9z M149.8,178c0,1.8-1.4,3.2-3.2,3.2H53.4c-1.8,0-3.2-1.5-3.2-3.2v-28.9h99.6
			L149.8,178L149.8,178z M149.8,142.6H50.2V23.7c0-3.5,2.9-6.4,6.4-6.4h86.8c3.5,0,6.4,2.9,6.4,6.4L149.8,142.6L149.8,142.6z"/>
	</g>
</g>
<g>
	<g>
		<path class="st0" d="M100,155.5c-5.3,0-9.6,4.3-9.6,9.6c0,5.3,4.3,9.6,9.6,9.6s9.6-4.3,9.6-9.6C109.6,159.8,105.3,155.5,100,155.5
			z M100,168.3c-1.8,0-3.2-1.4-3.2-3.2s1.4-3.2,3.2-3.2c1.8,0,3.2,1.4,3.2,3.2S101.8,168.3,100,168.3z"/>
	</g>
</g>
<g>
	<g>
		<path class="st0" d="M100,110.5c-10.6,0-19.3,8.6-19.3,19.3c0,1.8,1.4,3.2,3.2,3.2h32.1c1.8,0,3.2-1.4,3.2-3.2
			C119.3,119.1,110.6,110.5,100,110.5z M87.6,126.6c1.4-5.5,6.5-9.6,12.4-9.6c6,0,11,4.1,12.4,9.6H87.6z"/>
	</g>
</g>
</svg>
