<?xml version="1.0" encoding="utf-8"?>
<!-- Generator: Adobe Illustrator 22.1.0, SVG Export Plug-In . SVG Version: 6.00 Build 0)  -->
<svg version="1.1" id="Layer_1" xmlns="http://www.w3.org/2000/svg" xmlns:xlink="http://www.w3.org/1999/xlink" x="0px" y="0px"
	 viewBox="0 0 200 200" style="enable-background:new 0 0 200 200;" xml:space="preserve">
<style type="text/css">
	.st0{fill:#F1754E;}
</style>
<g>
	<g>
		<path class="st0" d="M147,9.3H53c-8,0-14.5,6.5-14.5,14.5v134.7c0,8,6.5,14.5,14.5,14.5h34.5v16.7c0,1.8,1.4,3.2,3.2,3.2
			c1.8,0,3.2-1.4,3.2-3.2V173h12.2v16.7c0,1.8,1.4,3.2,3.2,3.2c1.8,0,3.2-1.4,3.2-3.2V173H147c8,0,14.5-6.5,14.5-14.5V23.8
			C161.5,15.8,155,9.3,147,9.3z M147,166.5H53c-4.4,0-8.1-3.6-8.1-8.1V23.8c0-4.4,3.6-8.1,8.1-8.1H147c4.4,0,8.1,3.6,8.1,8.1v134.7
			h0C155.1,162.9,151.5,166.5,147,166.5z"/>
	</g>
</g>
<g>
	<g>
		<path class="st0" d="M100,116.6c-11.7,0-21.2,9.5-21.2,21.2S88.3,159,100,159s21.2-9.5,21.2-21.2S111.7,116.6,100,116.6z
			 M100,152.6c-8.1,0-14.8-6.6-14.8-14.8S91.9,123,100,123s14.8,6.6,14.8,14.8S108.1,152.6,100,152.6z"/>
	</g>
</g>
<g>
	<g>
		<path class="st0" d="M100,128.6c-1.8,0-3.2,1.4-3.2,3.2v6c0,1.8,1.4,3.2,3.2,3.2c1.8,0,3.2-1.4,3.2-3.2v-6
			C103.2,130.1,101.8,128.6,100,128.6z"/>
	</g>
</g>
<g>
	<g>
		<path class="st0" d="M118.6,66.1c-2.9-5.9-7.3-9.1-7.5-9.2c-1.1-0.8-2.6-0.8-3.7,0c-1.1,0.8-1.6,2.1-1.3,3.4
			c0,0.2,0.1,0.3,0.1,0.5c-4-11-11.9-15.8-12.4-16.1c-1.1-0.7-2.5-0.6-3.5,0.2c-1,0.8-1.5,2.1-1.2,3.3l1.1,4.6
			c1.1,4.8-0.6,9.7-4.3,12.8c-6.3,5.3-8.6,14-5.7,21.7l1.7,4.3c0.6,1.7,2.5,2.5,4.1,1.9c1.7-0.6,2.5-2.5,1.9-4.1L86.2,85
			c-2-5.1-0.4-11,3.8-14.5c4.2-3.5,6.7-8.6,6.9-13.9c2.6,3.8,5.1,9.4,5.3,17.2c0,1.3,0.9,2.5,2.1,3c1.2,0.5,2.6,0.1,3.5-0.9
			c0.2-0.2,3-3.5,4.4-8.2c2.6,4.5,4.3,11.8-0.9,21.6c-0.8,1.6-0.2,3.5,1.3,4.3c0.5,0.3,1,0.4,1.5,0.4c1.2,0,2.3-0.6,2.8-1.7
			C123.1,80.5,121.2,71.6,118.6,66.1z"/>
	</g>
</g>
<g>
	<g>
		<path class="st0" d="M134.9,33.1H65.1c-1.8,0-3.2,1.4-3.2,3.2v69.8c0,1.8,1.4,3.2,3.2,3.2h69.8c1.8,0,3.2-1.4,3.2-3.2V36.3
			C138.1,34.5,136.7,33.1,134.9,33.1z M131.7,102.9H68.3V39.5h63.4L131.7,102.9L131.7,102.9z"/>
	</g>
</g>
</svg>
