<?xml version="1.0" encoding="utf-8"?>
<!-- Generator: Adobe Illustrator 22.1.0, SVG Export Plug-In . SVG Version: 6.00 Build 0)  -->
<svg version="1.1" id="Capa_1" xmlns="http://www.w3.org/2000/svg" xmlns:xlink="http://www.w3.org/1999/xlink" x="0px" y="0px"
	 viewBox="0 0 200 200" style="enable-background:new 0 0 200 200;" xml:space="preserve">
<style type="text/css">
	.st0{fill:#F1754E;}
</style>
<g>
	<g>
		<g id="group-18svg">
			<path id="path-1_8_" class="st0" d="M155.7,138.5c0,8.3-6.7,15-15,15H58.8c-8.3,0-15-6.7-15-15V26.6c0-8.3,6.7-15,15-15h81.8
				c8.3,0,15,6.7,15,15V138.5z M147.5,26.6c0-3.8-3.1-6.8-6.8-6.8H58.8c-3.8,0-6.8,3.1-6.8,6.8v111.9c0,3.8,3.1,6.8,6.8,6.8h81.8
				c3.8,0,6.8-3.1,6.8-6.8V26.6z"/>
			<path id="path-2_8_" class="st0" d="M133.8,158.9c0,1.5-1.2,2.7-2.7,2.7h-16.4c-1.5,0-2.7-1.2-2.7-2.7v-5.5
				c0-1.5,1.2-2.7,2.7-2.7h16.4c1.5,0,2.7,1.2,2.7,2.7V158.9z"/>
			<path id="path-3_8_" class="st0" d="M142.5,185.9c-7,0-12.5-1.9-16.6-5.6c-8-7.3-6.6-18.8-6.6-19.3c0.3-2.2,2.3-3.8,4.6-3.5
				c2.2,0.3,3.8,2.3,3.5,4.6c0,0.1-0.8,7.9,4,12.3c3.9,3.5,11,4.3,20.5,2.2c25.7-5.6,29.7-3.1,31.5,0c1.4,2.3,0.7,4.9-0.6,6.4
				c-1.4,1.7-4,2-5.8,0.5c-0.7-0.6-1.1-1.3-1.3-2.1c-2.4-0.2-8.4,0.1-22.1,3.1C149.6,185.5,145.9,185.9,142.5,185.9z"/>
			<path id="path-4_8_" class="st0" d="M90.2,153.5c0-1.5-1.2-2.7-2.7-2.7H71.1c-1.5,0-2.7,1.2-2.7,2.7v5.5c0,1.5,1.2,2.7,2.7,2.7
				h16.4c1.5,0,2.7-1.2,2.7-2.7V153.5z"/>
			<path id="path-5_8_" class="st0" d="M60,185.9c-3.4,0-7.2-0.4-11.2-1.3c-13.7-3-19.6-3.3-22.1-3.1c-0.2,0.8-0.7,1.5-1.3,2.1
				c-1.7,1.4-4.3,1.2-5.8-0.5c-1.3-1.6-2-4.1-0.6-6.4c1.9-3.1,5.9-5.6,31.5,0c9.5,2.1,16.6,1.3,20.5-2.2c4.9-4.4,4-12.2,4-12.3
				c-0.3-2.2,1.3-4.3,3.6-4.6c2.2-0.3,4.3,1.3,4.6,3.5c0.1,0.5,1.4,12-6.6,19.3C72.5,184.1,66.9,185.9,60,185.9z"/>
			<path id="path-6_7_" class="st0" d="M101.8,140.7c-10.8,0-19.6-8.8-19.6-19.6c0-10.8,8.8-19.6,19.6-19.6s19.6,8.8,19.6,19.6
				C121.4,131.9,112.6,140.7,101.8,140.7z M101.8,109.8c-6.3,0-11.4,5.1-11.4,11.4c0,6.3,5.1,11.4,11.4,11.4
				c6.3,0,11.4-5.1,11.4-11.4C113.2,114.9,108.1,109.8,101.8,109.8z"/>
			<path id="path-7_7_" class="st0" d="M102.5,116.6c-2.3,0-4.1-1.8-4.1-4.1v-8.2c0-2.3,1.8-4.1,4.1-4.1c2.3,0,4.1,1.8,4.1,4.1v8.2
				C106.5,114.8,104.7,116.6,102.5,116.6z"/>
			<path id="path-8_6_" class="st0" d="M110.8,41.6H89c-2.3,0-4.1-1.8-4.1-4.1c0-2.3,1.8-4.1,4.1-4.1h21.8c2.3,0,4.1,1.8,4.1,4.1
				C114.9,39.8,113.1,41.6,110.8,41.6z"/>
		</g>
	</g>
</g>
</svg>
