<?xml version="1.0" encoding="utf-8"?>
<!-- Generator: Adobe Illustrator 22.1.0, SVG Export Plug-In . SVG Version: 6.00 Build 0)  -->
<svg version="1.1" id="Capa_1" xmlns="http://www.w3.org/2000/svg" xmlns:xlink="http://www.w3.org/1999/xlink" x="0px" y="0px"
	 viewBox="0 0 464 464" style="enable-background:new 0 0 464 464;" xml:space="preserve">
<style type="text/css">
	.st0{opacity:0.45;fill:#D1E3EE;}
	.st1{opacity:0.45;}
	.st2{fill:#88D0EF;}
	.st3{fill:#7D8F9F;}
	.st4{opacity:0.45;fill:#FFBF41;}
	.st5{opacity:0.45;fill:#4FB86A;}
	.st6{opacity:0.45;fill:#2BB3CE;}
</style>
<path class="st0" d="M37.1,4h389.8C447.4,4,464,20.6,464,41.1v85.8c0,20.5-16.6,37.1-37.1,37.1H37.1C16.6,164,0,147.4,0,126.9V41.1
	C0,20.6,16.6,4,37.1,4z"/>
<g class="st1">
	<path class="st2" d="M39.3,284C27.9,284,17,279.5,9,271.4C-3,259.5-2.9,240.1,9,228.1c5.6-5.6,13.1-8.8,21-8.9h0.6
		c8.1,0,15.9,3.2,21.6,9l0.6,0.6c3.1,3.2,3,8.2-0.1,11.3c-3.1,3-8,3-11.1,0.1l-0.7-0.6c-2.8-2.8-6.7-4.4-10.6-4.3
		c-8.1,0.2-14.5,6.8-14.3,14.9c0.1,3.8,1.6,7.4,4.3,10.1c10.6,10.2,27.4,10.2,38,0c8.4-8.3,13-19.6,13-31.4v-34.3c0-4.4,3.6-8,8-8
		s8,3.6,8,8v34.3c0,16-6.3,31.4-17.7,42.7C61.6,279.5,50.7,284,39.3,284L39.3,284z"/>
	<path class="st2" d="M104,316c-4.4,0-8-3.6-8-8c0-2.1,0.8-4.2,2.3-5.7c19.1-18.9,29.7-44.7,29.7-71.6V204c0-4.4,3.6-8,8-8
		s8,3.6,8,8v26.7c0.1,31.1-12.3,61-34.3,82.9C108.2,315.2,106.1,316,104,316z"/>
	<path class="st2" d="M192,332c-4.4,0-8-3.6-8-8v-80c0-4.4,3.6-8,8-8s8,3.6,8,8v80C200,328.4,196.4,332,192,332z"/>
	<path class="st2" d="M192,220c-4.4,0-8-3.6-8-8v-16c0-4.4,3.6-8,8-8s8,3.6,8,8v16C200,216.4,196.4,220,192,220z"/>
	<path class="st2" d="M424.7,284c-11.4,0-22.3-4.5-30.3-12.6c-11.4-11.3-17.7-26.7-17.7-42.7v-34.3c0-4.4,3.6-8,8-8s8,3.6,8,8v34.3
		c0,11.8,4.7,23.1,13,31.4c10.6,10.2,27.4,10.2,38,0c5.7-5.7,5.7-15,0-20.7c-2.7-2.6-6.2-4.2-10-4.3c-4-0.1-7.8,1.5-10.6,4.3
		l-0.7,0.7c-3.1,3.2-8.2,3.2-11.3,0.1s-3.2-8.2-0.1-11.3c0.1-0.1,0.1-0.1,0.2-0.2l0.7-0.6c5.9-5.9,13.9-9.1,22.2-8.9
		c16.9,0.4,30.3,14.3,30,31.3c-0.2,7.9-3.4,15.4-9,21C447,279.5,436.1,284,424.7,284L424.7,284z"/>
	<path class="st2" d="M360,316c-2.1,0-4.2-0.8-5.7-2.3c-22.1-21.9-34.4-51.8-34.3-82.9V204c0-4.4,3.6-8,8-8s8,3.6,8,8v26.7
		c-0.1,26.9,10.6,52.7,29.7,71.6c3.1,3.1,3.1,8.2,0,11.3C364.2,315.2,362.1,316,360,316z"/>
	<path class="st2" d="M272,332c-4.4,0-8-3.6-8-8v-80c0-4.4,3.6-8,8-8s8,3.6,8,8v80C280,328.4,276.4,332,272,332z"/>
	<path class="st2" d="M272,220c-4.4,0-8-3.6-8-8v-16c0-4.4,3.6-8,8-8s8,3.6,8,8v16C280,216.4,276.4,220,272,220z"/>
</g>
<g class="st1">
	<path class="st3" d="M424,140H40c-4.4,0-8-3.6-8-8s3.6-8,8-8h384c4.4,0,8,3.6,8,8S428.4,140,424,140z"/>
	<path class="st3" d="M424,108H40c-4.4,0-8-3.6-8-8s3.6-8,8-8h384c4.4,0,8,3.6,8,8S428.4,108,424,108z"/>
</g>
<path class="st4" d="M384,36h32c8.8,0,16,7.2,16,16l0,0c0,8.8-7.2,16-16,16h-32c-8.8,0-16-7.2-16-16l0,0C368,43.2,375.2,36,384,36z"
	/>
<path class="st5" d="M328,60h-16c-4.4,0-8-3.6-8-8s3.6-8,8-8h16c4.4,0,8,3.6,8,8S332.4,60,328,60z"/>
<path class="st6" d="M280,60h-16c-4.4,0-8-3.6-8-8s3.6-8,8-8h16c4.4,0,8,3.6,8,8S284.4,60,280,60z"/>
<g class="st1">
	<path class="st2" d="M376,428c-13.3,0-24-10.7-24-24s10.7-24,24-24s24,10.7,24,24S389.3,428,376,428z M376,396c-4.4,0-8,3.6-8,8
		s3.6,8,8,8s8-3.6,8-8S380.4,396,376,396z"/>
	<path class="st2" d="M392,460c-2.1,0-4.2-0.8-5.7-2.3L376,447.3l-10.3,10.3c-3.2,3.1-8.2,3-11.3-0.2c-3-3.1-3-8,0-11.1l21.7-21.7
		l21.7,21.7c3.1,3.1,3.1,8.2,0,11.3C396.2,459.2,394.1,460,392,460z"/>
	<path class="st2" d="M376,444c-4.4,0-8-3.6-8-8v-16c0-4.4,3.6-8,8-8s8,3.6,8,8v16C384,440.4,380.4,444,376,444z"/>
	<path class="st2" d="M376,383.3l-21.7-21.7c-3.1-3.2-3-8.2,0.2-11.3c3.1-3,8-3,11.1,0l10.3,10.3l10.3-10.3c3.2-3.1,8.2-3,11.3,0.2
		c3,3.1,3,8,0,11.1L376,383.3z"/>
	<path class="st2" d="M376,396c-4.4,0-8-3.6-8-8v-16c0-4.4,3.6-8,8-8s8,3.6,8,8v16C384,392.4,380.4,396,376,396z"/>
	<path class="st2" d="M424,428c-2.1,0-4.2-0.8-5.7-2.3L396.7,404l21.7-21.7c3.2-3.1,8.2-3,11.3,0.2c3,3.1,3,8,0,11.1L419.3,404
		l10.3,10.3c3.1,3.1,3.1,8.2,0,11.3C428.2,427.2,426.1,428,424,428z"/>
	<path class="st2" d="M408,412h-16c-4.4,0-8-3.6-8-8s3.6-8,8-8h16c4.4,0,8,3.6,8,8S412.4,412,408,412z"/>
	<path class="st2" d="M328,428c-4.4,0-8-3.6-8-8c0-2.1,0.8-4.2,2.3-5.7l10.3-10.3l-10.3-10.3c-3.1-3.2-3-8.2,0.2-11.3
		c3.1-3,8-3,11.1,0l21.7,21.7l-21.7,21.7C332.2,427.2,330.1,428,328,428z"/>
	<path class="st2" d="M360,412h-16c-4.4,0-8-3.6-8-8s3.6-8,8-8h16c4.4,0,8,3.6,8,8S364.4,412,360,412z"/>
	<path class="st2" d="M136,412c-13.3,0-24-10.7-24-24s10.7-24,24-24s24,10.7,24,24S149.3,412,136,412z M136,380c-4.4,0-8,3.6-8,8
		s3.6,8,8,8s8-3.6,8-8S140.4,380,136,380z"/>
	<path class="st2" d="M152,444c-2.1,0-4.2-0.8-5.7-2.3L136,431.3l-10.3,10.3c-3.2,3.1-8.2,3-11.3-0.2c-3-3.1-3-8,0-11.1l21.7-21.7
		l21.7,21.7c3.1,3.1,3.1,8.2,0,11.3C156.2,443.2,154.1,444,152,444L152,444z"/>
	<path class="st2" d="M136,428c-4.4,0-8-3.6-8-8v-16c0-4.4,3.6-8,8-8s8,3.6,8,8v16C144,424.4,140.4,428,136,428z"/>
	<path class="st2" d="M136,367.3l-21.7-21.7c-3.1-3.2-3-8.2,0.2-11.3c3.1-3,8-3,11.1,0l10.3,10.3l10.3-10.3c3.2-3.1,8.2-3,11.3,0.2
		c3,3.1,3,8,0,11.1L136,367.3z"/>
	<path class="st2" d="M136,380c-4.4,0-8-3.6-8-8v-16c0-4.4,3.6-8,8-8s8,3.6,8,8v16C144,376.4,140.4,380,136,380z"/>
	<path class="st2" d="M184,412c-2.1,0-4.2-0.8-5.7-2.3L156.7,388l21.7-21.7c3.2-3.1,8.2-3,11.3,0.2c3,3.1,3,8,0,11.1L179.3,388
		l10.3,10.3c3.1,3.1,3.1,8.2,0,11.3C188.2,411.2,186.1,412,184,412L184,412z"/>
	<path class="st2" d="M168,396h-16c-4.4,0-8-3.6-8-8s3.6-8,8-8h16c4.4,0,8,3.6,8,8S172.4,396,168,396z"/>
	<path class="st2" d="M88,412c-4.4,0-8-3.6-8-8c0-2.1,0.8-4.2,2.3-5.7L92.7,388l-10.3-10.3c-3.1-3.2-3-8.2,0.2-11.3
		c3.1-3,8-3,11.1,0l21.7,21.7l-21.7,21.7C92.2,411.2,90.1,412,88,412L88,412z"/>
	<path class="st2" d="M120,396h-16c-4.4,0-8-3.6-8-8s3.6-8,8-8h16c4.4,0,8,3.6,8,8S124.4,396,120,396z"/>
</g>
</svg>
